# This file uses centimeters as units for non-parametric coordinates.

mtllib Backgound.mtl
g default
v -1144.025787 -0.000000 743.864320
v -915.220644 -0.000000 743.864320
v -686.415500 -0.000000 743.864320
v -457.610288 -0.000000 743.864320
v -228.805144 -0.000000 743.864320
v 0.000000 -0.000000 743.864320
v 228.805212 -0.000000 743.864320
v 457.610288 -0.000000 743.864320
v 686.415500 -0.000000 743.864320
v 915.220712 -0.000000 743.864320
v 1144.025787 -0.000000 743.864320
v -1144.025787 -0.000000 515.059177
v -915.220644 -0.000000 515.059177
v -686.415500 -0.000000 515.059177
v -457.610288 -0.000000 515.059177
v -228.805144 -0.000000 515.059177
v 0.000000 -0.000000 515.059177
v 228.805212 -0.000000 515.059177
v 457.610288 -0.000000 515.059177
v 686.415500 -0.000000 515.059177
v 915.220712 -0.000000 515.059177
v 1144.025787 -0.000000 515.059177
v -1144.025787 -0.000000 286.254033
v -915.220644 -0.000000 286.254033
v -686.415500 -0.000000 286.254033
v -457.610288 -0.000000 286.254033
v -228.805144 -0.000000 286.254033
v 0.000000 -0.000000 286.254033
v 228.805212 -0.000000 286.254033
v 457.610288 -0.000000 286.254033
v 686.415500 -0.000000 286.254033
v 915.220712 -0.000000 286.254033
v 1144.025787 -0.000000 286.254033
v -1144.025787 -0.000000 57.448821
v -915.220644 -0.000000 57.448821
v -686.415500 -0.000000 57.448821
v -457.610288 -0.000000 57.448821
v -228.805144 -0.000000 57.448821
v 0.000000 -0.000000 57.448821
v 228.805212 -0.000000 57.448821
v 457.610288 -0.000000 57.448821
v 686.415500 -0.000000 57.448821
v 915.220712 -0.000000 57.448821
v 1144.025787 -0.000000 57.448821
v -1144.025787 -0.000000 -171.356323
v -915.220644 -0.000000 -171.356323
v -686.415500 -0.000000 -171.356323
v -457.610288 -0.000000 -171.356323
v -228.805144 -0.000000 -171.356323
v 0.000000 -0.000000 -171.356323
v 228.805212 -0.000000 -171.356323
v 457.610288 -0.000000 -171.356323
v 686.415500 -0.000000 -171.356323
v 915.220712 -0.000000 -171.356323
v 1144.025787 -0.000000 -171.356323
v -1144.025787 56.973244 -332.739972
v -915.220644 56.973244 -332.739972
v -686.415500 56.973244 -332.739972
v -457.610288 56.973244 -332.739972
v -228.805144 56.973244 -332.739972
v 0.000000 56.973244 -332.739972
v 228.805212 56.973244 -332.739972
v 457.610288 56.973244 -332.739972
v 686.415500 56.973244 -332.739972
v 915.220712 56.973244 -332.739972
v 1144.025787 56.973244 -332.739972
v -1144.025787 281.750517 -399.910360
v -915.220644 281.750517 -399.910360
v -686.415500 281.750517 -399.910360
v -457.610288 281.750517 -399.910360
v -228.805144 281.750517 -399.910360
v 0.000000 281.750517 -399.910360
v 228.805212 281.750517 -399.910360
v 457.610288 281.750517 -399.910360
v 686.415500 281.750517 -399.910360
v 915.220712 281.750517 -399.910360
v 1144.025787 281.750517 -399.910360
v -1144.025787 457.610015 -399.659287
v -915.220644 457.610015 -399.659287
v -686.415500 457.609981 -399.659287
v -457.610288 457.609981 -399.659287
v -228.805144 457.609981 -399.659287
v 0.000000 457.609981 -399.659287
v 228.805212 457.609981 -399.659287
v 457.610288 457.609981 -399.659287
v 686.415500 457.609981 -399.659287
v 915.220712 457.610015 -399.659287
v 1144.025787 457.610015 -399.659287
v -1144.025787 686.415159 -399.408044
v -915.220644 686.415159 -399.408044
v -686.415500 686.415159 -399.408044
v -457.610288 686.415159 -399.408044
v -228.805144 686.415159 -399.408044
v 0.000000 686.415159 -399.408044
v 228.805212 686.415159 -399.408044
v 457.610288 686.415159 -399.408044
v 686.415500 686.415159 -399.408044
v 915.220712 686.415159 -399.408044
v 1144.025787 686.415159 -399.408044
v -1144.025787 915.220166 -399.157108
v -915.220644 915.220166 -399.157108
v -686.415500 915.220166 -399.157108
v -457.610288 915.220166 -399.157108
v -228.805144 915.220166 -399.157108
v 0.000000 915.220166 -399.157108
v 228.805212 915.220166 -399.157108
v 457.610288 915.220166 -399.157108
v 686.415500 915.220166 -399.157108
v 915.220712 915.220166 -399.157108
v 1144.025787 915.220166 -399.157108
v -1144.025787 1144.025174 -398.905830
v -915.220644 1144.025174 -398.905830
v -686.415500 1144.025174 -398.905830
v -457.610288 1144.025174 -398.905830
v -228.805144 1144.025174 -398.905830
v 0.000000 1144.025174 -398.905830
v 228.805212 1144.025174 -398.905830
v 457.610288 1144.025174 -398.905830
v 686.415500 1144.025174 -398.905830
v 915.220712 1144.025174 -398.905830
v 1144.025787 1144.025174 -398.905830
v 1144.025787 143.925500 -390.600494
v 915.220712 143.925500 -390.600494
v 686.415500 143.925500 -390.600494
v 457.610288 143.925500 -390.600494
v 228.805212 143.925500 -390.600494
v 0.000000 143.925500 -390.600494
v -228.805144 143.925500 -390.600494
v -457.610288 143.925500 -390.600494
v -686.415500 143.925500 -390.600494
v -915.220644 143.925500 -390.600494
v -1144.025787 143.925500 -390.600494
v 1144.025787 17.458806 -252.228178
v 915.220712 17.458806 -252.228178
v 686.415500 17.458806 -252.228178
v 457.610288 17.458806 -252.228178
v 228.805212 17.458806 -252.228178
v 0.000000 17.458806 -252.228178
v -228.805144 17.458806 -252.228178
v -457.610288 17.458806 -252.228178
v -686.415500 17.458806 -252.228178
v -915.220712 17.458806 -252.228178
v -1144.025787 17.458806 -252.228178
vt 0.000000 0.000000
vt 0.100000 0.000000
vt 0.200000 0.000000
vt 0.300000 0.000000
vt 0.400000 0.000000
vt 0.500000 0.000000
vt 0.600000 0.000000
vt 0.700000 0.000000
vt 0.800000 0.000000
vt 0.900000 0.000000
vt 1.000000 0.000000
vt 0.000000 0.100000
vt 0.100000 0.100000
vt 0.200000 0.100000
vt 0.300000 0.100000
vt 0.400000 0.100000
vt 0.500000 0.100000
vt 0.600000 0.100000
vt 0.700000 0.100000
vt 0.800000 0.100000
vt 0.900000 0.100000
vt 1.000000 0.100000
vt 0.000000 0.200000
vt 0.100000 0.200000
vt 0.200000 0.200000
vt 0.300000 0.200000
vt 0.400000 0.200000
vt 0.500000 0.200000
vt 0.600000 0.200000
vt 0.700000 0.200000
vt 0.800000 0.200000
vt 0.900000 0.200000
vt 1.000000 0.200000
vt 0.000000 0.300000
vt 0.100000 0.300000
vt 0.200000 0.300000
vt 0.300000 0.300000
vt 0.400000 0.300000
vt 0.500000 0.300000
vt 0.600000 0.300000
vt 0.700000 0.300000
vt 0.800000 0.300000
vt 0.900000 0.300000
vt 1.000000 0.300000
vt 0.000000 0.400000
vt 0.100000 0.400000
vt 0.200000 0.400000
vt 0.300000 0.400000
vt 0.400000 0.400000
vt 0.500000 0.400000
vt 0.600000 0.400000
vt 0.700000 0.400000
vt 0.800000 0.400000
vt 0.900000 0.400000
vt 1.000000 0.400000
vt 0.000000 0.500000
vt 0.100000 0.500000
vt 0.200000 0.500000
vt 0.300000 0.500000
vt 0.400000 0.500000
vt 0.500000 0.500000
vt 0.600000 0.500000
vt 0.700000 0.500000
vt 0.800000 0.500000
vt 0.900000 0.500000
vt 1.000000 0.500000
vt 0.000000 0.600000
vt 0.100000 0.600000
vt 0.200000 0.600000
vt 0.300000 0.600000
vt 0.400000 0.600000
vt 0.500000 0.600000
vt 0.600000 0.600000
vt 0.700000 0.600000
vt 0.800000 0.600000
vt 0.900000 0.600000
vt 1.000000 0.600000
vt 0.000000 0.700000
vt 0.100000 0.700000
vt 0.200000 0.700000
vt 0.300000 0.700000
vt 0.400000 0.700000
vt 0.500000 0.700000
vt 0.600000 0.700000
vt 0.700000 0.700000
vt 0.800000 0.700000
vt 0.900000 0.700000
vt 1.000000 0.700000
vt 0.000000 0.800000
vt 0.100000 0.800000
vt 0.200000 0.800000
vt 0.300000 0.800000
vt 0.400000 0.800000
vt 0.500000 0.800000
vt 0.600000 0.800000
vt 0.700000 0.800000
vt 0.800000 0.800000
vt 0.900000 0.800000
vt 1.000000 0.800000
vt 0.000000 0.900000
vt 0.100000 0.900000
vt 0.200000 0.900000
vt 0.300000 0.900000
vt 0.400000 0.900000
vt 0.500000 0.900000
vt 0.600000 0.900000
vt 0.700000 0.900000
vt 0.800000 0.900000
vt 0.900000 0.900000
vt 1.000000 0.900000
vt 0.000000 1.000000
vt 0.100000 1.000000
vt 0.200000 1.000000
vt 0.300000 1.000000
vt 0.400000 1.000000
vt 0.500000 1.000000
vt 0.600000 1.000000
vt 0.700000 1.000000
vt 0.800000 1.000000
vt 0.900000 1.000000
vt 1.000000 1.000000
vt 1.000000 0.550120
vt 0.900000 0.550120
vt 0.800000 0.550120
vt 0.700000 0.550120
vt 0.600000 0.550120
vt 0.500000 0.550120
vt 0.400000 0.550120
vt 0.300000 0.550120
vt 0.200000 0.550120
vt 0.100000 0.550120
vt 0.000000 0.550120
vt 1.000000 0.447197
vt 0.900000 0.447197
vt 0.800000 0.447197
vt 0.700000 0.447197
vt 0.600000 0.447197
vt 0.500000 0.447197
vt 0.400000 0.447197
vt 0.300000 0.447197
vt 0.200000 0.447197
vt 0.100000 0.447197
vt 0.000000 0.447197
vn 0.000000 1.000000 0.000000
vn 0.000000 1.000000 0.000000
vn 0.000000 1.000000 0.000000
vn 0.000000 1.000000 0.000000
vn 0.000000 1.000000 0.000000
vn 0.000000 1.000000 0.000000
vn 0.000000 1.000000 0.000000
vn 0.000000 1.000000 0.000000
vn 0.000000 1.000000 0.000000
vn 0.000000 1.000000 0.000000
vn 0.000000 1.000000 0.000000
vn 0.000000 1.000000 0.000000
vn 0.000000 1.000000 0.000000
vn 0.000000 1.000000 0.000000
vn 0.000000 1.000000 0.000000
vn 0.000000 1.000000 0.000000
vn 0.000000 1.000000 0.000000
vn 0.000000 1.000000 0.000000
vn 0.000000 1.000000 0.000000
vn 0.000000 1.000000 0.000000
vn 0.000000 1.000000 0.000000
vn 0.000000 1.000000 0.000000
vn 0.000000 1.000000 0.000000
vn 0.000000 1.000000 0.000000
vn 0.000000 1.000000 0.000000
vn 0.000000 1.000000 0.000000
vn 0.000000 1.000000 0.000000
vn 0.000000 1.000000 0.000000
vn 0.000000 1.000000 0.000000
vn 0.000000 1.000000 0.000000
vn 0.000000 1.000000 0.000000
vn 0.000000 1.000000 0.000000
vn 0.000000 1.000000 0.000000
vn 0.000000 1.000000 0.000000
vn 0.000000 1.000000 0.000000
vn 0.000000 1.000000 0.000000
vn 0.000000 1.000000 0.000000
vn 0.000000 1.000000 0.000000
vn 0.000000 1.000000 0.000000
vn 0.000000 1.000000 0.000000
vn 0.000000 1.000000 0.000000
vn 0.000000 1.000000 0.000000
vn 0.000000 1.000000 0.000000
vn 0.000000 1.000000 0.000000
vn 0.000000 0.998415 0.056288
vn 0.000000 0.998415 0.056288
vn 0.000000 0.998415 0.056288
vn 0.000000 0.998415 0.056288
vn 0.000000 0.998415 0.056288
vn 0.000000 0.998415 0.056288
vn 0.000000 0.998415 0.056288
vn 0.000000 0.998415 0.056288
vn 0.000000 0.998415 0.056288
vn 0.000000 0.998415 0.056288
vn 0.000000 0.998415 0.056288
vn 0.000000 0.942964 0.332894
vn 0.000000 0.942964 0.332894
vn 0.000000 0.942964 0.332894
vn 0.000000 0.942964 0.332894
vn 0.000000 0.942964 0.332894
vn 0.000000 0.942964 0.332894
vn 0.000000 0.942964 0.332894
vn 0.000000 0.942964 0.332894
vn 0.000000 0.942964 0.332894
vn 0.000000 0.942964 0.332894
vn 0.000000 0.942964 0.332894
vn 0.000000 0.738149 0.674638
vn 0.000000 0.738149 0.674638
vn 0.000000 0.286320 0.958134
vn 0.000000 0.286320 0.958134
vn 0.000000 0.738149 0.674638
vn 0.000000 0.286320 0.958134
vn 0.000000 0.738149 0.674638
vn 0.000000 0.286320 0.958134
vn 0.000000 0.738149 0.674638
vn 0.000000 0.286320 0.958134
vn 0.000000 0.738149 0.674638
vn 0.000000 0.286320 0.958134
vn 0.000000 0.738149 0.674638
vn 0.000000 0.286320 0.958134
vn 0.000000 0.738149 0.674638
vn 0.000000 0.286320 0.958134
vn 0.000000 0.738149 0.674638
vn 0.000000 0.286320 0.958134
vn 0.000000 0.738149 0.674638
vn 0.000000 0.286320 0.958134
vn 0.000000 0.738149 0.674638
vn 0.000000 0.286320 0.958134
vn 0.000000 0.028867 0.999583
vn -0.000000 0.028867 0.999583
vn -0.000000 -0.001241 0.999999
vn 0.000000 -0.001241 0.999999
vn -0.000000 0.028867 0.999583
vn -0.000000 -0.001241 0.999999
vn 0.000000 0.028867 0.999583
vn 0.000000 -0.001241 0.999999
vn 0.000000 0.028867 0.999583
vn 0.000000 -0.001241 0.999999
vn 0.000000 0.028867 0.999583
vn 0.000000 -0.001241 0.999999
vn 0.000000 0.028867 0.999583
vn 0.000000 -0.001241 0.999999
vn 0.000000 0.028867 0.999583
vn 0.000000 -0.001241 0.999999
vn 0.000000 0.028867 0.999583
vn 0.000000 -0.001241 0.999999
vn 0.000000 0.028867 0.999583
vn 0.000000 -0.001241 0.999999
vn 0.000000 0.028867 0.999583
vn 0.000000 -0.001241 0.999999
vn -0.000000 -0.001097 0.999999
vn 0.000000 -0.001097 0.999999
vn -0.000000 -0.001097 0.999999
vn 0.000000 -0.001097 0.999999
vn 0.000000 -0.001097 0.999999
vn 0.000000 -0.001097 0.999999
vn 0.000000 -0.001097 0.999999
vn 0.000000 -0.001097 0.999999
vn 0.000000 -0.001097 0.999999
vn 0.000000 -0.001097 0.999999
vn 0.000000 -0.001097 0.999999
vn 0.000000 -0.001097 0.999999
vn 0.000000 -0.001097 0.999999
vn 0.000000 -0.001097 0.999999
vn 0.000000 -0.001097 0.999999
vn 0.000000 -0.001097 0.999999
vn 0.000000 -0.001097 0.999999
vn 0.000000 -0.001097 0.999999
vn 0.000000 -0.001097 0.999999
vn 0.000000 -0.001097 0.999999
vn 0.000000 -0.001097 0.999999
vn 0.000000 -0.001097 0.999999
vn 0.000000 -0.001098 0.999999
vn 0.000000 -0.001098 0.999999
vn 0.000000 -0.001098 0.999999
vn 0.000000 -0.001098 0.999999
vn 0.000000 -0.001098 0.999999
vn 0.000000 -0.001098 0.999999
vn 0.000000 -0.001098 0.999999
vn 0.000000 -0.001098 0.999999
vn 0.000000 -0.001098 0.999999
vn 0.000000 -0.001098 0.999999
vn 0.000000 -0.001098 0.999999
s 1
g pPlane3
usemtl initialShadingGroup
f 1/1/1 2/2/2 13/13/3 12/12/4
f 2/2/2 3/3/5 14/14/6 13/13/3
f 3/3/5 4/4/7 15/15/8 14/14/6
f 4/4/7 5/5/9 16/16/10 15/15/8
f 5/5/9 6/6/11 17/17/12 16/16/10
f 6/6/11 7/7/13 18/18/14 17/17/12
f 7/7/13 8/8/15 19/19/16 18/18/14
f 8/8/15 9/9/17 20/20/18 19/19/16
f 9/9/17 10/10/19 21/21/20 20/20/18
f 10/10/19 11/11/21 22/22/22 21/21/20
f 12/12/4 13/13/3 24/24/23 23/23/24
f 13/13/3 14/14/6 25/25/25 24/24/23
f 14/14/6 15/15/8 26/26/26 25/25/25
f 15/15/8 16/16/10 27/27/27 26/26/26
f 16/16/10 17/17/12 28/28/28 27/27/27
f 17/17/12 18/18/14 29/29/29 28/28/28
f 18/18/14 19/19/16 30/30/30 29/29/29
f 19/19/16 20/20/18 31/31/31 30/30/30
f 20/20/18 21/21/20 32/32/32 31/31/31
f 21/21/20 22/22/22 33/33/33 32/32/32
f 23/23/24 24/24/23 35/35/34 34/34/35
f 24/24/23 25/25/25 36/36/36 35/35/34
f 25/25/25 26/26/26 37/37/37 36/36/36
f 26/26/26 27/27/27 38/38/38 37/37/37
f 27/27/27 28/28/28 39/39/39 38/38/38
f 28/28/28 29/29/29 40/40/40 39/39/39
f 29/29/29 30/30/30 41/41/41 40/40/40
f 30/30/30 31/31/31 42/42/42 41/41/41
f 31/31/31 32/32/32 43/43/43 42/42/42
f 32/32/32 33/33/33 44/44/44 43/43/43
f 34/34/35 35/35/34 46/46/45 45/45/46
f 35/35/34 36/36/36 47/47/47 46/46/45
f 36/36/36 37/37/37 48/48/48 47/47/47
f 37/37/37 38/38/38 49/49/49 48/48/48
f 38/38/38 39/39/39 50/50/50 49/49/49
f 39/39/39 40/40/40 51/51/51 50/50/50
f 40/40/40 41/41/41 52/52/52 51/51/51
f 41/41/41 42/42/42 53/53/53 52/52/52
f 42/42/42 43/43/43 54/54/54 53/53/53
f 43/43/43 44/44/44 55/55/55 54/54/54
f 45/45/46 46/46/45 142/142/56 143/143/57
f 46/46/45 47/47/47 141/141/58 142/142/56
f 47/47/47 48/48/48 140/140/59 141/141/58
f 48/48/48 49/49/49 139/139/60 140/140/59
f 49/49/49 50/50/50 138/138/61 139/139/60
f 50/50/50 51/51/51 137/137/62 138/138/61
f 51/51/51 52/52/52 136/136/63 137/137/62
f 52/52/52 53/53/53 135/135/64 136/136/63
f 53/53/53 54/54/54 134/134/65 135/135/64
f 54/54/54 55/55/55 133/133/66 134/134/65
f 56/56/67 57/57/68 131/131/69 132/132/70
f 57/57/68 58/58/71 130/130/72 131/131/69
f 58/58/71 59/59/73 129/129/74 130/130/72
f 59/59/73 60/60/75 128/128/76 129/129/74
f 60/60/75 61/61/77 127/127/78 128/128/76
f 61/61/77 62/62/79 126/126/80 127/127/78
f 62/62/79 63/63/81 125/125/82 126/126/80
f 63/63/81 64/64/83 124/124/84 125/125/82
f 64/64/83 65/65/85 123/123/86 124/124/84
f 65/65/85 66/66/87 122/122/88 123/123/86
f 67/67/89 68/68/90 79/79/91 78/78/92
f 68/68/90 69/69/93 80/80/94 79/79/91
f 69/69/93 70/70/95 81/81/96 80/80/94
f 70/70/95 71/71/97 82/82/98 81/81/96
f 71/71/97 72/72/99 83/83/100 82/82/98
f 72/72/99 73/73/101 84/84/102 83/83/100
f 73/73/101 74/74/103 85/85/104 84/84/102
f 74/74/103 75/75/105 86/86/106 85/85/104
f 75/75/105 76/76/107 87/87/108 86/86/106
f 76/76/107 77/77/109 88/88/110 87/87/108
f 78/78/92 79/79/91 90/90/111 89/89/112
f 79/79/91 80/80/94 91/91/113 90/90/111
f 80/80/94 81/81/96 92/92/114 91/91/113
f 81/81/96 82/82/98 93/93/115 92/92/114
f 82/82/98 83/83/100 94/94/116 93/93/115
f 83/83/100 84/84/102 95/95/117 94/94/116
f 84/84/102 85/85/104 96/96/118 95/95/117
f 85/85/104 86/86/106 97/97/119 96/96/118
f 86/86/106 87/87/108 98/98/120 97/97/119
f 87/87/108 88/88/110 99/99/121 98/98/120
f 89/89/112 90/90/111 101/101/122 100/100/123
f 90/90/111 91/91/113 102/102/124 101/101/122
f 91/91/113 92/92/114 103/103/125 102/102/124
f 92/92/114 93/93/115 104/104/126 103/103/125
f 93/93/115 94/94/116 105/105/127 104/104/126
f 94/94/116 95/95/117 106/106/128 105/105/127
f 95/95/117 96/96/118 107/107/129 106/106/128
f 96/96/118 97/97/119 108/108/130 107/107/129
f 97/97/119 98/98/120 109/109/131 108/108/130
f 98/98/120 99/99/121 110/110/132 109/109/131
f 100/100/123 101/101/122 112/112/133 111/111/134
f 101/101/122 102/102/124 113/113/135 112/112/133
f 102/102/124 103/103/125 114/114/136 113/113/135
f 103/103/125 104/104/126 115/115/137 114/114/136
f 104/104/126 105/105/127 116/116/138 115/115/137
f 105/105/127 106/106/128 117/117/139 116/116/138
f 106/106/128 107/107/129 118/118/140 117/117/139
f 107/107/129 108/108/130 119/119/141 118/118/140
f 108/108/130 109/109/131 120/120/142 119/119/141
f 109/109/131 110/110/132 121/121/143 120/120/142
f 123/123/86 122/122/88 77/77/109 76/76/107
f 124/124/84 123/123/86 76/76/107 75/75/105
f 125/125/82 124/124/84 75/75/105 74/74/103
f 126/126/80 125/125/82 74/74/103 73/73/101
f 127/127/78 126/126/80 73/73/101 72/72/99
f 128/128/76 127/127/78 72/72/99 71/71/97
f 129/129/74 128/128/76 71/71/97 70/70/95
f 130/130/72 129/129/74 70/70/95 69/69/93
f 131/131/69 130/130/72 69/69/93 68/68/90
f 132/132/70 131/131/69 68/68/90 67/67/89
f 134/134/65 133/133/66 66/66/87 65/65/85
f 135/135/64 134/134/65 65/65/85 64/64/83
f 136/136/63 135/135/64 64/64/83 63/63/81
f 137/137/62 136/136/63 63/63/81 62/62/79
f 138/138/61 137/137/62 62/62/79 61/61/77
f 139/139/60 138/138/61 61/61/77 60/60/75
f 140/140/59 139/139/60 60/60/75 59/59/73
f 141/141/58 140/140/59 59/59/73 58/58/71
f 142/142/56 141/141/58 58/58/71 57/57/68
f 143/143/57 142/142/56 57/57/68 56/56/67
