# This file uses centimeters as units for non-parametric coordinates.

mtllib domeeee_L.mtl
g default
v -5569.259644 3773.021603 913.104820
v -3522.308922 5158.189487 913.104820
v -3215.413046 4581.919289 -1519.598222
v -5250.747013 3473.980379 -1073.188639
v -0.000084 5938.862896 913.104820
v -0.000077 5158.189487 -1751.788116
v 3522.308254 5158.189487 913.104820
v 3215.413713 4581.919289 -1519.598222
v 5569.260311 3773.020935 913.104820
v 5250.747681 3473.979712 -1073.188639
v -2625.373840 3473.980379 -3059.482765
v -4547.280645 2813.516998 -2527.257299
v -0.000077 3773.020935 -3300.461245
v 2625.373840 3473.980379 -3059.482765
v 4547.281313 2813.516998 -2527.257299
v 7044.617844 1851.201749 913.104820
v 6430.826092 1563.067150 -1519.598222
v 5250.747681 3473.979712 -1073.188639
v 5569.260311 3773.020935 913.104820
v 5250.747681 1009.097612 -3059.482765
v 3215.413046 1563.067150 -3952.301264
v -0.000070 1851.201749 -4416.680384
v -3215.413046 1563.067150 -3952.301264
v -5250.747681 1009.097612 -3059.482765
v -6430.826092 1563.067818 -1519.598222
v -5250.747013 3473.980379 -1073.188639
v -7044.617844 1851.201749 913.104820
v -5569.259644 3773.021603 913.104820
v 7876.120186 -1455.785155 913.104820
v 7044.617844 -1455.785155 -1751.788116
v 5569.259644 -1455.785155 -3300.461245
v 3522.308922 -1455.785155 -4416.680384
v -0.000063 -1455.785155 -5045.776558
v -3522.308922 -1455.785155 -4416.680384
v -5569.259644 -1455.785155 -3300.461245
v -7044.617844 -1455.785155 -1751.788116
v -7876.120186 -1455.785155 913.104820
v 7044.617844 -4762.771893 913.104820
v 6430.826092 -4474.637461 -1519.598222
v 5250.747681 -3920.667839 -3059.482765
v 3215.413046 -4474.637461 -3952.301264
v -0.000049 -4762.771893 -4416.680384
v -3215.413046 -4474.637461 -3952.301264
v -5250.747681 -3920.667839 -3059.482765
v -6430.826092 -4474.638128 -1519.598222
v -7044.617844 -4762.772560 913.104820
v 5569.259644 -6684.591579 913.104820
v 5250.747013 -6385.551357 -1073.188639
v 4547.280645 -5725.088310 -2527.257299
v 2625.373840 -6385.550022 -3059.482765
v -0.000049 -6684.591579 -3300.461245
v -2625.373840 -6385.550022 -3059.482765
v -4547.281313 -5725.088310 -2527.257299
v -5250.747681 -6385.550022 -1073.188639
v -5569.260311 -6684.590912 913.104820
v -5250.747681 -6385.550022 -1073.188639
v -3215.413713 -7493.493271 -1519.598222
v -3522.308254 -8069.760799 913.104820
v -5569.260311 -6684.590912 913.104820
v -0.000042 -8069.760799 -1751.788116
v -0.000042 -8850.436211 913.104820
v 3215.413046 -7493.493271 -1519.598222
v 3522.308922 -8069.760799 913.104820
v 5250.747013 -6385.551357 -1073.188639
v 5569.259644 -6684.591579 913.104820
vt 0.035896 0.726848
vt 0.007813 0.604541
vt 0.124857 0.590834
vt 0.132491 0.704959
vt 0.007813 0.409091
vt 0.136543 0.429625
vt 0.073707 0.221820
vt 0.183726 0.274276
vt 0.145727 0.112816
vt 0.232822 0.167603
vt 0.213760 0.573500
vt 0.217457 0.677309
vt 0.229252 0.446896
vt 0.263775 0.322549
vt 0.303784 0.223423
vt 0.395895 0.007813
vt 0.397881 0.130058
vt 0.284232 0.134171
vt 0.269809 0.031909
vt 0.406258 0.224642
vt 0.363689 0.320030
vt 0.326667 0.466806
vt 0.307123 0.615954
vt 0.306167 0.722739
vt 0.256277 0.799955
vt 0.159388 0.745828
vt 0.196753 0.901732
vt 0.100206 0.825242
vt 0.583350 0.021239
vt 0.549304 0.147591
vt 0.526816 0.241666
vt 0.504692 0.343030
vt 0.474024 0.500001
vt 0.443358 0.656972
vt 0.421236 0.758336
vt 0.398751 0.852412
vt 0.364709 0.978765
vt 0.751304 0.098275
vt 0.691777 0.200051
vt 0.641884 0.277264
vt 0.640926 0.384048
vt 0.621382 0.533195
vt 0.584361 0.679971
vt 0.541794 0.775359
vt 0.550174 0.869942
vt 0.552164 0.992188
vt 0.847849 0.174768
vt 0.788664 0.254180
vt 0.730593 0.322695
vt 0.734289 0.426503
vt 0.718798 0.553106
vt 0.684276 0.677451
vt 0.644269 0.776577
vt 0.663823 0.865827
vt 0.678250 0.968088
vt 0.715231 0.832396
vt 0.764325 0.725724
vt 0.874345 0.778178
vt 0.802327 0.887183
vt 0.811507 0.570376
vt 0.940237 0.590909
vt 0.823192 0.409169
vt 0.940237 0.395461
vt 0.815559 0.295045
vt 0.912153 0.273155
vn -0.547968 0.809767 -0.209782
vn -0.426572 0.871225 -0.242905
vn -0.521271 0.781549 -0.342721
vn -0.340194 0.828871 -0.444118
vn 0.000000 0.963245 -0.268625
vn -0.000000 0.843695 -0.536824
vn 0.426572 0.871225 -0.242904
vn 0.340194 0.828871 -0.444118
vn 0.547968 0.809767 -0.209782
vn 0.521271 0.781549 -0.342721
vn -0.510003 0.542236 -0.667740
vn -0.240692 0.613262 -0.752315
vn 0.000000 0.631532 -0.775350
vn 0.240692 0.613262 -0.752315
vn 0.510003 0.542236 -0.667740
vn 0.847366 0.467661 -0.251525
vn 0.807175 0.372807 -0.457694
vn 0.747579 0.565483 -0.348360
vn 0.774872 0.594860 -0.213812
vn 0.587926 0.260565 -0.765800
vn 0.302316 0.321430 -0.897378
vn 0.000000 0.389453 -0.921046
vn -0.302316 0.321430 -0.897378
vn -0.587926 0.260565 -0.765799
vn -0.807175 0.372807 -0.457694
vn -0.747579 0.565483 -0.348360
vn -0.847366 0.467661 -0.251525
vn -0.774872 0.594860 -0.213812
vn 0.958605 0.000000 -0.284739
vn 0.828919 0.000000 -0.559368
vn 0.608587 -0.000000 -0.793487
vn 0.369738 0.000000 -0.929136
vn 0.000000 0.000000 -1.000000
vn -0.369738 0.000000 -0.929136
vn -0.608587 -0.000000 -0.793487
vn -0.828919 0.000000 -0.559368
vn -0.958605 0.000000 -0.284739
vn 0.847366 -0.467661 -0.251525
vn 0.807175 -0.372807 -0.457694
vn 0.587926 -0.260565 -0.765800
vn 0.302316 -0.321430 -0.897378
vn -0.000000 -0.389453 -0.921047
vn -0.302316 -0.321430 -0.897378
vn -0.587926 -0.260565 -0.765800
vn -0.807175 -0.372807 -0.457694
vn -0.847366 -0.467661 -0.251525
vn 0.774872 -0.594860 -0.213812
vn 0.747579 -0.565483 -0.348360
vn 0.510003 -0.542236 -0.667740
vn 0.240692 -0.613261 -0.752315
vn 0.000000 -0.631532 -0.775350
vn -0.240692 -0.613261 -0.752315
vn -0.510003 -0.542236 -0.667740
vn -0.747579 -0.565483 -0.348360
vn -0.774872 -0.594860 -0.213812
vn -0.521272 -0.781548 -0.342721
vn -0.340194 -0.828871 -0.444118
vn -0.426573 -0.871225 -0.242904
vn -0.547968 -0.809767 -0.209782
vn 0.000000 -0.843694 -0.536824
vn -0.000000 -0.963245 -0.268625
vn 0.340194 -0.828871 -0.444118
vn 0.426573 -0.871225 -0.242904
vn 0.521272 -0.781548 -0.342721
vn 0.547968 -0.809767 -0.209782
s 1
g Group53891 dome_L
usemtl initialShadingGroup
f 1/1/1 2/2/2 4/4/3
f 2/2/2 3/3/4 4/4/3
f 2/2/2 5/5/5 3/3/4
f 5/5/5 6/6/6 3/3/4
f 5/5/5 7/7/7 8/8/8
f 5/5/5 8/8/8 6/6/6
f 7/7/7 9/9/9 10/10/10
f 7/7/7 10/10/10 8/8/8
f 4/4/3 3/3/4 12/12/11
f 3/3/4 11/11/12 12/12/11
f 3/3/4 6/6/6 11/11/12
f 6/6/6 13/13/13 11/11/12
f 6/6/6 8/8/8 14/14/14
f 6/6/6 14/14/14 13/13/13
f 8/8/8 10/10/10 15/15/15
f 8/8/8 15/15/15 14/14/14
f 16/16/16 17/17/17 18/18/18
f 16/16/16 18/18/18 19/19/19
f 17/17/17 20/20/20 15/15/15
f 17/17/17 15/15/15 18/18/18
f 20/20/20 21/21/21 15/15/15
f 21/21/21 14/14/14 15/15/15
f 21/21/21 22/22/22 14/14/14
f 22/22/22 13/13/13 14/14/14
f 22/22/22 23/23/23 11/11/12
f 22/22/22 11/11/12 13/13/13
f 23/23/23 24/24/24 12/12/11
f 23/23/23 12/12/11 11/11/12
f 24/24/24 25/25/25 12/12/11
f 25/25/25 26/26/26 12/12/11
f 25/25/25 27/27/27 26/26/26
f 27/27/27 28/28/28 26/26/26
f 29/29/29 30/30/30 17/17/17
f 29/29/29 17/17/17 16/16/16
f 30/30/30 31/31/31 20/20/20
f 30/30/30 20/20/20 17/17/17
f 31/31/31 32/32/32 20/20/20
f 32/32/32 21/21/21 20/20/20
f 32/32/32 33/33/33 21/21/21
f 33/33/33 22/22/22 21/21/21
f 33/33/33 34/34/34 23/23/23
f 33/33/33 23/23/23 22/22/22
f 34/34/34 35/35/35 24/24/24
f 34/34/34 24/24/24 23/23/23
f 35/35/35 36/36/36 24/24/24
f 36/36/36 25/25/25 24/24/24
f 36/36/36 37/37/37 25/25/25
f 37/37/37 27/27/27 25/25/25
f 38/38/38 39/39/39 29/29/29
f 39/39/39 30/30/30 29/29/29
f 39/39/39 40/40/40 30/30/30
f 40/40/40 31/31/31 30/30/30
f 40/40/40 41/41/41 32/32/32
f 40/40/40 32/32/32 31/31/31
f 41/41/41 42/42/42 33/33/33
f 41/41/41 33/33/33 32/32/32
f 42/42/42 43/43/43 33/33/33
f 43/43/43 34/34/34 33/33/33
f 43/43/43 44/44/44 34/34/34
f 44/44/44 35/35/35 34/34/34
f 44/44/44 45/45/45 36/36/36
f 44/44/44 36/36/36 35/35/35
f 45/45/45 46/46/46 37/37/37
f 45/45/45 37/37/37 36/36/36
f 47/47/47 48/48/48 38/38/38
f 48/48/48 39/39/39 38/38/38
f 48/48/48 49/49/49 39/39/39
f 49/49/49 40/40/40 39/39/39
f 49/49/49 50/50/50 41/41/41
f 49/49/49 41/41/41 40/40/40
f 50/50/50 51/51/51 42/42/42
f 50/50/50 42/42/42 41/41/41
f 51/51/51 52/52/52 42/42/42
f 52/52/52 43/43/43 42/42/42
f 52/52/52 53/53/53 43/43/43
f 53/53/53 44/44/44 43/43/43
f 53/53/53 54/54/54 45/45/45
f 53/53/53 45/45/45 44/44/44
f 54/54/54 55/55/55 46/46/46
f 54/54/54 46/46/46 45/45/45
f 56/56/56 57/57/57 58/58/58
f 56/56/56 58/58/58 59/59/59
f 57/57/57 60/60/60 61/61/61
f 57/57/57 61/61/61 58/58/58
f 60/60/60 62/62/62 61/61/61
f 62/62/62 63/63/63 61/61/61
f 62/62/62 64/64/64 63/63/63
f 64/64/64 65/65/65 63/63/63
f 53/53/53 52/52/52 57/57/57
f 53/53/53 57/57/57 56/56/56
f 52/52/52 51/51/51 60/60/60
f 52/52/52 60/60/60 57/57/57
f 51/51/51 50/50/50 60/60/60
f 50/50/50 62/62/62 60/60/60
f 50/50/50 49/49/49 62/62/62
f 49/49/49 64/64/64 62/62/62
