# This file uses centimeters as units for non-parametric coordinates.

mtllib portal.mtl
g default
v 0.483425 2.954154 -3.321997
v 0.334540 3.140849 -3.321997
v 0.119396 3.244457 -3.321997
v -0.119396 3.244457 -3.321997
v -0.334540 3.140850 -3.321997
v -0.483424 2.954154 -3.321997
v -0.536561 2.721349 -3.321997
v -0.483424 2.488545 -3.321997
v -0.334540 2.301849 -3.321997
v -0.119396 2.198242 -3.321997
v 0.119396 2.198241 -3.321997
v 0.334540 2.301849 -3.321997
v 0.483425 2.488544 -3.321997
v 0.536561 2.721349 -3.321997
v 0.559651 2.990863 -3.068436
v 0.387291 3.206996 -3.068436
v 0.138223 3.326942 -3.068436
v -0.138222 3.326942 -3.068436
v -0.387290 3.206996 -3.068436
v -0.559651 2.990863 -3.068436
v -0.621166 2.721349 -3.068436
v -0.559651 2.451836 -3.068436
v -0.387291 2.235702 -3.068436
v -0.138223 2.115757 -3.068436
v 0.138222 2.115757 -3.068436
v 0.387291 2.235702 -3.068436
v 0.559651 2.451836 -3.068436
v 0.621167 2.721349 -3.068436
v 0.814897 3.113783 -2.661985
v 0.563927 3.428490 -2.661985
v 0.201263 3.603140 -2.661985
v -0.201263 3.603140 -2.661985
v -0.563926 3.428490 -2.661985
v -0.814897 3.113783 -2.661985
v -0.904467 2.721349 -2.661985
v -0.814897 2.328916 -2.661985
v -0.563927 2.014208 -2.661985
v -0.201263 1.839559 -2.661985
v 0.201263 1.839559 -2.661985
v 0.563927 2.014208 -2.661985
v 0.814897 2.328915 -2.661985
v 0.904467 2.721349 -2.661985
v 1.207073 3.302644 -2.074624
v 0.835321 3.768808 -2.074624
v 0.298123 4.027509 -2.074624
v -0.298122 4.027509 -2.074624
v -0.835320 3.768808 -2.074624
v -1.207072 3.302645 -2.074624
v -1.339750 2.721350 -2.074624
v -1.207073 2.140054 -2.074624
v -0.835320 1.673891 -2.074624
v -0.298123 1.415190 -2.074624
v 0.298122 1.415190 -2.074624
v 0.835320 1.673891 -2.074624
v 1.207073 2.140054 -2.074624
v 1.339750 2.721349 -2.074624
v 1.512557 3.449758 -1.388342
v 1.046722 4.033896 -1.388342
v 0.373571 4.358069 -1.388342
v -0.373570 4.358069 -1.388342
v -1.046721 4.033897 -1.388342
v -1.512557 3.449759 -1.388342
v -1.678811 2.721350 -1.388342
v -1.512557 1.992941 -1.388342
v -1.046722 1.408802 -1.388342
v -0.373571 1.084629 -1.388342
v 0.373571 1.084629 -1.388342
v 1.046722 1.408802 -1.388342
v 1.512557 1.992940 -1.388342
v 1.678812 2.721349 -1.388342
v 1.652476 3.517139 -0.532253
v 1.143549 4.155314 -0.532253
v 0.408128 4.509474 -0.532253
v -0.408127 4.509474 -0.532253
v -1.143548 4.155314 -0.532253
v -1.652476 3.517140 -0.532253
v -1.834110 2.721350 -0.532253
v -1.652476 1.925559 -0.532253
v -1.143549 1.287385 -0.532253
v -0.408128 0.933225 -0.532253
v 0.408128 0.933224 -0.532253
v 1.143549 1.287384 -0.532253
v 1.652476 1.925559 -0.532253
v 1.834110 2.721349 -0.532253
v 1.750455 3.564323 -0.151842
v 1.211353 4.240337 -0.151842
v 0.432327 4.615496 -0.151842
v -0.432326 4.615496 -0.151842
v -1.211352 4.240337 -0.151842
v -1.750455 3.564324 -0.151842
v -1.942858 2.721350 -0.151842
v -1.750455 1.878375 -0.151842
v -1.211353 1.202362 -0.151842
v -0.432327 0.827203 -0.151842
v 0.432326 0.827202 -0.151842
v 1.211352 1.202361 -0.151842
v 1.750455 1.878375 -0.151842
v 1.942858 2.721349 -0.151842
vt 0.000000 0.000000
vt 0.071429 0.000000
vt 0.142857 0.000000
vt 0.214286 0.000000
vt 0.285714 0.000000
vt 0.357143 0.000000
vt 0.428571 0.000000
vt 0.500000 0.000000
vt 0.571429 0.000000
vt 0.642857 0.000000
vt 0.714286 0.000000
vt 0.785714 0.000000
vt 0.857143 0.000000
vt 0.928571 0.000000
vt 1.000000 0.000000
vt 0.000000 0.166667
vt 0.071429 0.166667
vt 0.142857 0.166667
vt 0.214286 0.166667
vt 0.285714 0.166667
vt 0.357143 0.166667
vt 0.428571 0.166667
vt 0.500000 0.166667
vt 0.571429 0.166667
vt 0.642857 0.166667
vt 0.714286 0.166667
vt 0.785714 0.166667
vt 0.857143 0.166667
vt 0.928571 0.166667
vt 1.000000 0.166667
vt 0.000000 0.333333
vt 0.071429 0.333333
vt 0.142857 0.333333
vt 0.214286 0.333333
vt 0.285714 0.333333
vt 0.357143 0.333333
vt 0.428571 0.333333
vt 0.500000 0.333333
vt 0.571429 0.333333
vt 0.642857 0.333333
vt 0.714286 0.333333
vt 0.785714 0.333333
vt 0.857143 0.333333
vt 0.928571 0.333333
vt 1.000000 0.333333
vt 0.000000 0.500000
vt 0.071429 0.500000
vt 0.142857 0.500000
vt 0.214286 0.500000
vt 0.285714 0.500000
vt 0.357143 0.500000
vt 0.428571 0.500000
vt 0.500000 0.500000
vt 0.571429 0.500000
vt 0.642857 0.500000
vt 0.714286 0.500000
vt 0.785714 0.500000
vt 0.857143 0.500000
vt 0.928571 0.500000
vt 1.000000 0.500000
vt 0.000000 0.666667
vt 0.071429 0.666667
vt 0.142857 0.666667
vt 0.214286 0.666667
vt 0.285714 0.666667
vt 0.357143 0.666667
vt 0.428571 0.666667
vt 0.500000 0.666667
vt 0.571429 0.666667
vt 0.642857 0.666667
vt 0.714286 0.666667
vt 0.785714 0.666667
vt 0.857143 0.666667
vt 0.928571 0.666667
vt 1.000000 0.666667
vt 0.000000 0.833333
vt 0.071429 0.833333
vt 0.142857 0.833333
vt 0.214286 0.833333
vt 0.285714 0.833333
vt 0.357143 0.833333
vt 0.428571 0.833333
vt 0.500000 0.833333
vt 0.571429 0.833333
vt 0.642857 0.833333
vt 0.714286 0.833333
vt 0.785714 0.833333
vt 0.857143 0.833333
vt 0.928571 0.833333
vt 1.000000 0.833333
vt 0.000000 1.000000
vt 0.071429 1.000000
vt 0.142857 1.000000
vt 0.214286 1.000000
vt 0.285714 1.000000
vt 0.357143 1.000000
vt 0.428571 1.000000
vt 0.500000 1.000000
vt 0.571429 1.000000
vt 0.642857 1.000000
vt 0.714286 1.000000
vt 0.785714 1.000000
vt 0.857143 1.000000
vt 0.928571 1.000000
vt 1.000000 1.000000
vn -0.854648 -0.411577 0.316514
vn -0.776020 -0.373712 0.508067
vn -0.537023 -0.673405 0.508067
vn -0.591435 -0.741636 0.316514
vn -0.191662 -0.839723 0.508066
vn -0.211081 -0.924804 0.316516
vn 0.191661 -0.839723 0.508066
vn 0.211081 -0.924804 0.316515
vn 0.537023 -0.673405 0.508067
vn 0.591435 -0.741636 0.316514
vn 0.776020 -0.373712 0.508067
vn 0.854648 -0.411577 0.316514
vn 0.861318 -0.000000 0.508067
vn 0.948588 -0.000000 0.316514
vn 0.776020 0.373712 0.508067
vn 0.854648 0.411577 0.316514
vn 0.537023 0.673405 0.508067
vn 0.591435 0.741635 0.316514
vn 0.191661 0.839723 0.508066
vn 0.211081 0.924804 0.316516
vn -0.191661 0.839723 0.508066
vn -0.211081 0.924804 0.316515
vn -0.537023 0.673405 0.508067
vn -0.591435 0.741636 0.316514
vn -0.776020 0.373712 0.508067
vn -0.854648 0.411577 0.316513
vn -0.861318 0.000000 0.508067
vn -0.948588 0.000000 0.316514
vn -0.728213 -0.350688 0.588833
vn -0.503939 -0.631919 0.588833
vn -0.179854 -0.787990 0.588833
vn 0.179853 -0.787990 0.588833
vn 0.503938 -0.631919 0.588833
vn 0.728212 -0.350689 0.588833
vn 0.808255 -0.000000 0.588833
vn 0.728213 0.350688 0.588833
vn 0.503939 0.631919 0.588833
vn 0.179854 0.787990 0.588833
vn -0.179853 0.787990 0.588833
vn -0.503939 0.631919 0.588833
vn -0.728213 0.350688 0.588833
vn -0.808255 0.000000 0.588833
vn -0.778856 -0.375077 0.502693
vn -0.538985 -0.675866 0.502693
vn -0.192362 -0.842791 0.502693
vn 0.192361 -0.842791 0.502693
vn 0.538985 -0.675866 0.502693
vn 0.778856 -0.375077 0.502693
vn 0.864465 -0.000000 0.502693
vn 0.778856 0.375077 0.502693
vn 0.538985 0.675866 0.502693
vn 0.192362 0.842791 0.502693
vn -0.192361 0.842791 0.502693
vn -0.538985 0.675866 0.502693
vn -0.778856 0.375077 0.502693
vn -0.864465 0.000000 0.502693
vn -0.862448 -0.415333 0.289280
vn -0.596833 -0.748404 0.289280
vn -0.213007 -0.933244 0.289280
vn 0.213007 -0.933245 0.289280
vn 0.596832 -0.748404 0.289280
vn 0.862448 -0.415333 0.289280
vn 0.957245 -0.000000 0.289280
vn 0.862448 0.415333 0.289280
vn 0.596832 0.748404 0.289280
vn 0.213007 0.933245 0.289280
vn -0.213007 0.933245 0.289280
vn -0.596832 0.748404 0.289280
vn -0.862448 0.415333 0.289280
vn -0.957245 0.000000 0.289280
vn -0.880540 -0.424046 0.211741
vn -0.609353 -0.764104 0.211741
vn -0.217476 -0.952822 0.211741
vn 0.217475 -0.952822 0.211741
vn 0.609353 -0.764104 0.211741
vn 0.880540 -0.424046 0.211741
vn 0.977326 -0.000000 0.211741
vn 0.880540 0.424045 0.211741
vn 0.609353 0.764104 0.211741
vn 0.217476 0.952822 0.211741
vn -0.217475 0.952822 0.211741
vn -0.609353 0.764104 0.211741
vn -0.880540 0.424046 0.211741
vn -0.977326 0.000000 0.211741
vn -0.866268 -0.417172 0.274860
vn -0.599476 -0.751719 0.274860
vn -0.213950 -0.937378 0.274860
vn 0.213950 -0.937378 0.274860
vn 0.599476 -0.751719 0.274860
vn 0.866268 -0.417173 0.274860
vn 0.961484 -0.000000 0.274860
vn 0.866268 0.417172 0.274860
vn 0.599476 0.751719 0.274860
vn 0.213951 0.937378 0.274860
vn -0.213950 0.937378 0.274860
vn -0.599476 0.751719 0.274860
vn -0.866267 0.417172 0.274860
vn -0.961484 0.000000 0.274860
s 1
g pCylinder1
usemtl initialShadingGroup
f 1/1/1 15/16/2 16/17/3 2/2/4
f 2/2/4 16/17/3 17/18/5 3/3/6
f 3/3/6 17/18/5 18/19/7 4/4/8
f 4/4/8 18/19/7 19/20/9 5/5/10
f 5/5/10 19/20/9 20/21/11 6/6/12
f 6/6/12 20/21/11 21/22/13 7/7/14
f 7/7/14 21/22/13 22/23/15 8/8/16
f 8/8/16 22/23/15 23/24/17 9/9/18
f 9/9/18 23/24/17 24/25/19 10/10/20
f 10/10/20 24/25/19 25/26/21 11/11/22
f 11/11/22 25/26/21 26/27/23 12/12/24
f 12/12/24 26/27/23 27/28/25 13/13/26
f 13/13/26 27/28/25 28/29/27 14/14/28
f 14/14/28 28/29/27 15/30/2 1/15/1
f 15/16/2 29/31/29 30/32/30 16/17/3
f 16/17/3 30/32/30 31/33/31 17/18/5
f 17/18/5 31/33/31 32/34/32 18/19/7
f 18/19/7 32/34/32 33/35/33 19/20/9
f 19/20/9 33/35/33 34/36/34 20/21/11
f 20/21/11 34/36/34 35/37/35 21/22/13
f 21/22/13 35/37/35 36/38/36 22/23/15
f 22/23/15 36/38/36 37/39/37 23/24/17
f 23/24/17 37/39/37 38/40/38 24/25/19
f 24/25/19 38/40/38 39/41/39 25/26/21
f 25/26/21 39/41/39 40/42/40 26/27/23
f 26/27/23 40/42/40 41/43/41 27/28/25
f 27/28/25 41/43/41 42/44/42 28/29/27
f 28/29/27 42/44/42 29/45/29 15/30/2
f 29/31/29 43/46/43 44/47/44 30/32/30
f 30/32/30 44/47/44 45/48/45 31/33/31
f 31/33/31 45/48/45 46/49/46 32/34/32
f 32/34/32 46/49/46 47/50/47 33/35/33
f 33/35/33 47/50/47 48/51/48 34/36/34
f 34/36/34 48/51/48 49/52/49 35/37/35
f 35/37/35 49/52/49 50/53/50 36/38/36
f 36/38/36 50/53/50 51/54/51 37/39/37
f 37/39/37 51/54/51 52/55/52 38/40/38
f 38/40/38 52/55/52 53/56/53 39/41/39
f 39/41/39 53/56/53 54/57/54 40/42/40
f 40/42/40 54/57/54 55/58/55 41/43/41
f 41/43/41 55/58/55 56/59/56 42/44/42
f 42/44/42 56/59/56 43/60/43 29/45/29
f 43/46/43 57/61/57 58/62/58 44/47/44
f 44/47/44 58/62/58 59/63/59 45/48/45
f 45/48/45 59/63/59 60/64/60 46/49/46
f 46/49/46 60/64/60 61/65/61 47/50/47
f 47/50/47 61/65/61 62/66/62 48/51/48
f 48/51/48 62/66/62 63/67/63 49/52/49
f 49/52/49 63/67/63 64/68/64 50/53/50
f 50/53/50 64/68/64 65/69/65 51/54/51
f 51/54/51 65/69/65 66/70/66 52/55/52
f 52/55/52 66/70/66 67/71/67 53/56/53
f 53/56/53 67/71/67 68/72/68 54/57/54
f 54/57/54 68/72/68 69/73/69 55/58/55
f 55/58/55 69/73/69 70/74/70 56/59/56
f 56/59/56 70/74/70 57/75/57 43/60/43
f 57/61/57 71/76/71 72/77/72 58/62/58
f 58/62/58 72/77/72 73/78/73 59/63/59
f 59/63/59 73/78/73 74/79/74 60/64/60
f 60/64/60 74/79/74 75/80/75 61/65/61
f 61/65/61 75/80/75 76/81/76 62/66/62
f 62/66/62 76/81/76 77/82/77 63/67/63
f 63/67/63 77/82/77 78/83/78 64/68/64
f 64/68/64 78/83/78 79/84/79 65/69/65
f 65/69/65 79/84/79 80/85/80 66/70/66
f 66/70/66 80/85/80 81/86/81 67/71/67
f 67/71/67 81/86/81 82/87/82 68/72/68
f 68/72/68 82/87/82 83/88/83 69/73/69
f 69/73/69 83/88/83 84/89/84 70/74/70
f 70/74/70 84/89/84 71/90/71 57/75/57
f 71/76/71 85/91/85 86/92/86 72/77/72
f 72/77/72 86/92/86 87/93/87 73/78/73
f 73/78/73 87/93/87 88/94/88 74/79/74
f 74/79/74 88/94/88 89/95/89 75/80/75
f 75/80/75 89/95/89 90/96/90 76/81/76
f 76/81/76 90/96/90 91/97/91 77/82/77
f 77/82/77 91/97/91 92/98/92 78/83/78
f 78/83/78 92/98/92 93/99/93 79/84/79
f 79/84/79 93/99/93 94/100/94 80/85/80
f 80/85/80 94/100/94 95/101/95 81/86/81
f 81/86/81 95/101/95 96/102/96 82/87/82
f 82/87/82 96/102/96 97/103/97 83/88/83
f 83/88/83 97/103/97 98/104/98 84/89/84
f 84/89/84 98/104/98 85/105/85 71/90/71
