# This file uses centimeters as units for non-parametric coordinates.

mtllib CrestPlaneMesh.mtl
g default
v -1.340083 0.000000 27.080069
v -1.340083 0.000000 22.461187
v -1.340082 0.000000 17.842303
v -5.559829 0.000000 26.703932
v -4.745907 0.000000 22.113913
v -3.931984 0.000000 17.518466
v -9.696740 0.000000 25.541502
v -8.060972 0.000000 21.138126
v -6.409991 0.000000 16.670224
v -13.702214 0.000000 23.629729
v -11.222836 0.000000 19.540679
v -8.701245 0.000000 15.333212
v -17.438645 0.000000 21.027713
v -14.106256 0.000000 17.370556
v -10.707394 0.000000 13.573874
v -20.780601 0.000000 17.786987
v -16.609674 0.000000 14.703931
v -12.333020 0.000000 11.487711
v -23.534611 0.000000 14.003628
v -18.587151 0.000000 11.659168
v -13.524067 0.000000 9.163755
v -25.543283 0.000000 9.822421
v -19.943515 0.000000 8.341746
v -14.241667 0.000000 6.699591
v -26.783013 0.000000 5.387112
v -20.668790 0.000000 4.868846
v -14.520280 0.000000 4.094615
v -27.278609 0.000000 0.817021
v -20.807849 0.000000 1.338658
v -14.334542 0.000000 1.307504
v -27.036211 0.000000 -3.791774
v -20.333745 0.000000 -2.382176
v -13.609745 0.000000 -1.505822
v -26.071142 0.000000 -8.322694
v -19.145633 0.000000 -6.202033
v -12.299737 0.000000 -4.155497
v -24.260619 0.000000 -12.745502
v -17.092753 0.000000 -9.929462
v -10.418211 0.000000 -6.458377
v -21.188963 0.000000 -17.273356
v -14.046212 0.000000 -13.322129
v -8.012637 0.000000 -8.354105
v -14.979630 0.000000 -22.856336
v -9.826073 0.000000 -16.174139
v -5.246345 0.000000 -9.602363
v -8.072654 0.000000 -26.254021
v -4.451429 0.000000 -18.005607
v -2.385419 0.000000 -10.088986
v 0.757143 0.000000 -27.451015
v 0.607543 0.000000 -18.220945
v 0.213583 0.000000 -9.912711
v 7.835463 0.000000 -26.280342
v 5.583781 0.000000 -17.126029
v 2.446280 0.000000 -9.287631
v 14.510794 0.000000 -23.349143
v 9.231496 0.000000 -15.593963
v 4.221150 0.000000 -8.423786
vt 0.000000 0.000000
vt 0.500000 0.000000
vt 0.500000 0.055556
vt 0.000000 0.055556
vt 1.000000 0.000000
vt 1.000000 0.055556
vt 0.500000 0.111111
vt 0.000000 0.111111
vt 1.000000 0.111111
vt 0.500000 0.166667
vt 0.000000 0.166667
vt 1.000000 0.166667
vt 0.500000 0.222222
vt 0.000000 0.222222
vt 1.000000 0.222222
vt 0.500000 0.277778
vt 0.000000 0.277778
vt 1.000000 0.277778
vt 0.500000 0.333333
vt 0.000000 0.333333
vt 1.000000 0.333333
vt 0.500000 0.388889
vt 0.000000 0.388889
vt 1.000000 0.388889
vt 0.500000 0.444444
vt 0.000000 0.444444
vt 1.000000 0.444444
vt 0.500000 0.500000
vt 0.000000 0.500000
vt 1.000000 0.500000
vt 0.500000 0.555556
vt 0.000000 0.555556
vt 1.000000 0.555556
vt 0.500000 0.611111
vt 0.000000 0.611111
vt 1.000000 0.611111
vt 0.500000 0.666667
vt 0.000000 0.666667
vt 1.000000 0.666667
vt 0.500000 0.722222
vt 0.000000 0.722222
vt 1.000000 0.722222
vt 0.500000 0.777778
vt 0.000000 0.777778
vt 1.000000 0.777778
vt 0.500000 0.833333
vt 0.000000 0.833333
vt 1.000000 0.833333
vt 0.500000 0.888889
vt 0.000000 0.888889
vt 1.000000 0.888889
vt 0.500000 0.944444
vt 0.000000 0.944444
vt 1.000000 0.944444
vt 0.500000 1.000000
vt 0.000000 1.000000
vt 1.000000 1.000000
vn 0.000000 1.000000 0.000000
vn 0.000000 1.000000 0.000000
vn 0.000000 1.000000 0.000000
vn 0.000000 1.000000 0.000000
vn 0.000000 1.000000 0.000000
vn 0.000000 1.000000 0.000000
vn 0.000000 1.000000 0.000000
vn 0.000000 1.000000 0.000000
vn 0.000000 1.000000 0.000000
vn 0.000000 1.000000 0.000000
vn 0.000000 1.000000 0.000000
vn 0.000000 1.000000 0.000000
vn 0.000000 1.000000 0.000000
vn 0.000000 1.000000 0.000000
vn 0.000000 1.000000 0.000000
vn 0.000000 1.000000 0.000000
vn 0.000000 1.000000 0.000000
vn 0.000000 1.000000 0.000000
vn 0.000000 1.000000 0.000000
vn 0.000000 1.000000 0.000000
vn 0.000000 1.000000 0.000000
vn 0.000000 1.000000 0.000000
vn 0.000000 1.000000 0.000000
vn 0.000000 1.000000 0.000000
vn 0.000000 1.000000 0.000000
vn 0.000000 1.000000 0.000000
vn 0.000000 1.000000 0.000000
vn 0.000000 1.000000 0.000000
vn 0.000000 1.000000 0.000000
vn 0.000000 1.000000 0.000000
vn 0.000000 1.000000 0.000000
vn 0.000000 1.000000 0.000000
vn 0.000000 1.000000 0.000000
vn 0.000000 1.000000 0.000000
vn 0.000000 1.000000 0.000000
vn 0.000000 1.000000 0.000000
vn 0.000000 1.000000 0.000000
vn 0.000000 1.000000 0.000000
vn 0.000000 1.000000 0.000000
vn 0.000000 1.000000 0.000000
vn 0.000000 1.000000 0.000000
vn 0.000000 1.000000 0.000000
vn 0.000000 1.000000 0.000000
vn 0.000000 1.000000 0.000000
vn 0.000000 1.000000 0.000000
vn 0.000000 1.000000 0.000000
vn 0.000000 1.000000 0.000000
vn 0.000000 1.000000 0.000000
vn 0.000000 1.000000 0.000000
vn 0.000000 1.000000 0.000000
vn 0.000000 1.000000 0.000000
vn 0.000000 1.000000 0.000000
vn 0.000000 1.000000 0.000000
vn 0.000000 1.000000 0.000000
vn 0.000000 1.000000 0.000000
vn 0.000000 1.000000 0.000000
vn 0.000000 1.000000 0.000000
vn 0.000000 1.000000 0.000000
vn 0.000000 1.000000 0.000000
vn 0.000000 1.000000 0.000000
vn 0.000000 1.000000 0.000000
vn 0.000000 1.000000 0.000000
vn 0.000000 1.000000 0.000000
vn 0.000000 1.000000 0.000000
vn 0.000000 1.000000 0.000000
vn 0.000000 1.000000 0.000000
vn 0.000000 1.000000 0.000000
vn 0.000000 1.000000 0.000000
vn 0.000000 1.000000 0.000000
vn 0.000000 1.000000 0.000000
vn 0.000000 1.000000 0.000000
vn 0.000000 1.000000 0.000000
vn 0.000000 1.000000 0.000000
vn 0.000000 1.000000 0.000000
vn 0.000000 1.000000 0.000000
vn 0.000000 1.000000 0.000000
vn 0.000000 1.000000 0.000000
vn 0.000000 1.000000 0.000000
vn 0.000000 1.000000 0.000000
vn 0.000000 1.000000 0.000000
vn 0.000000 1.000000 0.000000
vn 0.000000 1.000000 0.000000
vn 0.000000 1.000000 0.000000
vn 0.000000 1.000000 0.000000
vn 0.000000 1.000000 0.000000
vn 0.000000 1.000000 0.000000
vn 0.000000 1.000000 0.000000
vn 0.000000 1.000000 0.000000
vn 0.000000 1.000000 0.000000
vn 0.000000 1.000000 0.000000
vn 0.000000 1.000000 0.000000
vn 0.000000 1.000000 0.000000
vn 0.000000 1.000000 0.000000
vn 0.000000 1.000000 0.000000
vn 0.000000 1.000000 0.000000
vn 0.000000 1.000000 0.000000
vn 0.000000 1.000000 0.000000
vn 0.000000 1.000000 0.000000
vn 0.000000 1.000000 0.000000
vn 0.000000 1.000000 0.000000
vn 0.000000 1.000000 0.000000
vn 0.000000 1.000000 0.000000
vn 0.000000 1.000000 0.000000
vn 0.000000 1.000000 0.000000
vn 0.000000 1.000000 0.000000
vn 0.000000 1.000000 0.000000
vn 0.000000 1.000000 0.000000
vn 0.000000 1.000000 0.000000
vn 0.000000 1.000000 0.000000
vn 0.000000 1.000000 0.000000
vn 0.000000 1.000000 0.000000
vn 0.000000 1.000000 0.000000
vn 0.000000 1.000000 0.000000
vn 0.000000 1.000000 0.000000
vn 0.000000 1.000000 0.000000
vn 0.000000 1.000000 0.000000
vn 0.000000 1.000000 0.000000
vn 0.000000 1.000000 0.000000
vn 0.000000 1.000000 0.000000
vn 0.000000 1.000000 0.000000
vn 0.000000 1.000000 0.000000
vn 0.000000 1.000000 0.000000
vn 0.000000 1.000000 0.000000
vn 0.000000 1.000000 0.000000
vn 0.000000 1.000000 0.000000
vn 0.000000 1.000000 0.000000
vn 0.000000 1.000000 0.000000
vn 0.000000 1.000000 0.000000
vn 0.000000 1.000000 0.000000
vn 0.000000 1.000000 0.000000
vn 0.000000 1.000000 0.000000
vn 0.000000 1.000000 0.000000
vn 0.000000 1.000000 0.000000
vn 0.000000 1.000000 0.000000
vn 0.000000 1.000000 0.000000
vn 0.000000 1.000000 0.000000
vn 0.000000 1.000000 0.000000
vn 0.000000 1.000000 0.000000
vn 0.000000 1.000000 0.000000
vn 0.000000 1.000000 0.000000
vn 0.000000 1.000000 0.000000
vn 0.000000 1.000000 0.000000
vn 0.000000 1.000000 0.000000
vn 0.000000 1.000000 0.000000
s off
g CrestShapeMesh
usemtl SlashCrest:initialShadingGroup
f 1/1/1 2/2/2 5/3/3 4/4/4
f 2/2/5 3/5/6 6/6/7 5/3/8
f 4/4/9 5/3/10 8/7/11 7/8/12
f 5/3/13 6/6/14 9/9/15 8/7/16
f 7/8/17 8/7/18 11/10/19 10/11/20
f 8/7/21 9/9/22 12/12/23 11/10/24
f 10/11/25 11/10/26 14/13/27 13/14/28
f 11/10/29 12/12/30 15/15/31 14/13/32
f 13/14/33 14/13/34 17/16/35 16/17/36
f 14/13/37 15/15/38 18/18/39 17/16/40
f 16/17/41 17/16/42 20/19/43 19/20/44
f 17/16/45 18/18/46 21/21/47 20/19/48
f 19/20/49 20/19/50 23/22/51 22/23/52
f 20/19/53 21/21/54 24/24/55 23/22/56
f 22/23/57 23/22/58 26/25/59 25/26/60
f 23/22/61 24/24/62 27/27/63 26/25/64
f 25/26/65 26/25/66 29/28/67 28/29/68
f 26/25/69 27/27/70 30/30/71 29/28/72
f 28/29/73 29/28/74 32/31/75 31/32/76
f 29/28/77 30/30/78 33/33/79 32/31/80
f 31/32/81 32/31/82 35/34/83 34/35/84
f 32/31/85 33/33/86 36/36/87 35/34/88
f 34/35/89 35/34/90 38/37/91 37/38/92
f 35/34/93 36/36/94 39/39/95 38/37/96
f 37/38/97 38/37/98 41/40/99 40/41/100
f 38/37/101 39/39/102 42/42/103 41/40/104
f 40/41/105 41/40/106 44/43/107 43/44/108
f 41/40/109 42/42/110 45/45/111 44/43/112
f 43/44/113 44/43/114 47/46/115 46/47/116
f 44/43/117 45/45/118 48/48/119 47/46/120
f 46/47/121 47/46/122 50/49/123 49/50/124
f 47/46/125 48/48/126 51/51/127 50/49/128
f 49/50/129 50/49/130 53/52/131 52/53/132
f 50/49/133 51/51/134 54/54/135 53/52/136
f 52/53/137 53/52/138 56/55/139 55/56/140
f 53/52/141 54/54/142 57/57/143 56/55/144
