# This file uses centimeters as units for non-parametric coordinates.

mtllib CylinderBlade01.mtl
g default
v -0.118254 0.462640 -0.166554
v -0.229079 0.418760 -0.166554
v -0.325510 0.348700 -0.166554
v -0.401488 0.256859 -0.166554
v -0.452238 0.149009 -0.166554
v -0.474572 0.031926 -0.166554
v -0.467088 -0.087034 -0.166554
v -0.430255 -0.200395 -0.166554
v -0.366388 -0.301034 -0.166554
v -0.279499 -0.382628 -0.166554
v -0.175047 -0.440050 -0.166554
v -0.059597 -0.469692 -0.166554
v 0.059597 -0.469694 -0.166554
v 0.175047 -0.440050 -0.166554
v 0.279498 -0.382628 -0.166554
v 0.366388 -0.301034 -0.166554
v 0.430255 -0.200395 -0.166554
v 0.467088 -0.087034 -0.166554
v 0.474572 0.031925 -0.166554
v 0.452238 0.149008 -0.166554
v 0.401488 0.256859 -0.166554
v 0.325510 0.348700 -0.166554
v 0.229079 0.418760 -0.166554
v 0.118255 0.462639 -0.166554
v -0.000000 0.477579 -0.166554
v -0.248689 0.968583 -0.000000
v -0.481753 0.876307 -0.000000
v -0.684547 0.728969 -0.000000
v -0.844328 0.535827 -0.000000
v -0.951057 0.309017 -0.000000
v -0.998027 0.062791 -0.000000
v -0.982287 -0.187381 -0.000000
v -0.904827 -0.425779 -0.000000
v -0.770514 -0.637424 -0.000000
v -0.587786 -0.809017 -0.000000
v -0.368125 -0.929777 -0.000000
v -0.125334 -0.992115 0.000000
v 0.125333 -0.992115 0.000000
v 0.368124 -0.929777 0.000000
v 0.587785 -0.809017 0.000000
v 0.770513 -0.637424 0.000000
v 0.904827 -0.425779 0.000000
v 0.982287 -0.187381 0.000000
v 0.998027 0.062790 0.000000
v 0.951057 0.309017 0.000000
v 0.844328 0.535827 0.000000
v 0.684547 0.728969 0.000000
v 0.481754 0.876307 0.000000
v 0.248690 0.968583 0.000000
v 0.000000 1.000000 -0.000000
v -0.118254 0.462640 0.166554
v -0.229079 0.418760 0.166554
v -0.325510 0.348700 0.166554
v -0.401488 0.256859 0.166554
v -0.452238 0.149009 0.166554
v -0.474572 0.031926 0.166554
v -0.467088 -0.087034 0.166554
v -0.430255 -0.200395 0.166554
v -0.366388 -0.301034 0.166554
v -0.279499 -0.382628 0.166554
v -0.175047 -0.440050 0.166554
v -0.059597 -0.469692 0.166554
v 0.059597 -0.469694 0.166554
v 0.175047 -0.440050 0.166554
v 0.279498 -0.382628 0.166554
v 0.366388 -0.301034 0.166554
v 0.430255 -0.200395 0.166554
v 0.467088 -0.087034 0.166554
v 0.474572 0.031925 0.166554
v 0.452238 0.149008 0.166554
v 0.401488 0.256859 0.166554
v 0.325510 0.348700 0.166554
v 0.229079 0.418760 0.166554
v 0.118255 0.462639 0.166554
v -0.000000 0.477579 0.166554
vt 0.000000 0.000000
vt 0.040000 0.000000
vt 0.080000 0.000000
vt 0.120000 0.000000
vt 0.160000 0.000000
vt 0.200000 0.000000
vt 0.240000 0.000000
vt 0.280000 0.000000
vt 0.320000 0.000000
vt 0.360000 0.000000
vt 0.400000 0.000000
vt 0.440000 0.000000
vt 0.480000 0.000000
vt 0.520000 0.000000
vt 0.560000 0.000000
vt 0.600000 0.000000
vt 0.640000 0.000000
vt 0.680000 0.000000
vt 0.720000 0.000000
vt 0.760000 0.000000
vt 0.800000 0.000000
vt 0.840000 0.000000
vt 0.880000 0.000000
vt 0.920000 0.000000
vt 0.960000 0.000000
vt 1.000000 0.000000
vt 0.000000 0.500000
vt 0.040000 0.500000
vt 0.080000 0.500000
vt 0.120000 0.500000
vt 0.160000 0.500000
vt 0.200000 0.500000
vt 0.240000 0.500000
vt 0.280000 0.500000
vt 0.320000 0.500000
vt 0.360000 0.500000
vt 0.400000 0.500000
vt 0.440000 0.500000
vt 0.480000 0.500000
vt 0.520000 0.500000
vt 0.560000 0.500000
vt 0.600000 0.500000
vt 0.640000 0.500000
vt 0.680000 0.500000
vt 0.720000 0.500000
vt 0.760000 0.500000
vt 0.800000 0.500000
vt 0.840000 0.500000
vt 0.880000 0.500000
vt 0.920000 0.500000
vt 0.960000 0.500000
vt 1.000000 0.500000
vt 0.000000 1.000000
vt 0.040000 1.000000
vt 0.080000 1.000000
vt 0.120000 1.000000
vt 0.160000 1.000000
vt 0.200000 1.000000
vt 0.240000 1.000000
vt 0.280000 1.000000
vt 0.320000 1.000000
vt 0.360000 1.000000
vt 0.400000 1.000000
vt 0.440000 1.000000
vt 0.480000 1.000000
vt 0.520000 1.000000
vt 0.560000 1.000000
vt 0.600000 1.000000
vt 0.640000 1.000000
vt 0.680000 1.000000
vt 0.720000 1.000000
vt 0.760000 1.000000
vt 0.800000 1.000000
vt 0.840000 1.000000
vt 0.880000 1.000000
vt 0.920000 1.000000
vt 0.960000 1.000000
vt 1.000000 1.000000
vn -0.075511 0.294178 -0.952763
vn -0.146231 0.266079 -0.952795
vn -0.481892 0.876231 0.000000
vn -0.248770 0.968563 0.000000
vn -0.207685 0.221249 -0.952846
vn -0.684710 0.728816 0.000000
vn -0.255998 0.162547 -0.952913
vn -0.844476 0.535594 0.000000
vn -0.288142 0.093708 -0.952992
vn -0.951153 0.308720 0.000000
vn -0.302127 0.019093 -0.953076
vn -0.998047 0.062464 0.000000
vn -0.297117 -0.056593 -0.953163
vn -0.982227 -0.187696 -0.000000
vn -0.273472 -0.128601 -0.953244
vn -0.904702 -0.426045 -0.000000
vn -0.232715 -0.192434 -0.953317
vn -0.770353 -0.637618 -0.000000
vn -0.177426 -0.244122 -0.953375
vn -0.587629 -0.809130 -0.000000
vn -0.111076 -0.280462 -0.953417
vn -0.368012 -0.929821 0.000000
vn -0.037810 -0.299210 -0.953438
vn -0.125295 -0.992120 0.000000
vn 0.037809 -0.299210 -0.953438
vn 0.125291 -0.992120 0.000000
vn 0.111077 -0.280462 -0.953417
vn 0.368014 -0.929820 0.000000
vn 0.177426 -0.244122 -0.953375
vn 0.587629 -0.809131 0.000000
vn 0.232715 -0.192434 -0.953317
vn 0.770352 -0.637618 0.000000
vn 0.273472 -0.128601 -0.953244
vn 0.904702 -0.426045 0.000000
vn 0.297117 -0.056593 -0.953163
vn 0.982227 -0.187696 -0.000000
vn 0.302127 0.019093 -0.953076
vn 0.998047 0.062463 0.000000
vn 0.288143 0.093708 -0.952991
vn 0.951153 0.308720 0.000000
vn 0.255998 0.162547 -0.952913
vn 0.844476 0.535594 -0.000000
vn 0.207685 0.221248 -0.952846
vn 0.684710 0.728816 0.000000
vn 0.146231 0.266079 -0.952795
vn 0.481892 0.876231 0.000000
vn 0.075511 0.294178 -0.952763
vn 0.248771 0.968562 0.000000
vn 0.000001 0.303749 -0.952752
vn 0.000002 1.000000 -0.000000
vn -0.146231 0.266079 0.952795
vn -0.075511 0.294178 0.952763
vn -0.207685 0.221249 0.952846
vn -0.255998 0.162547 0.952913
vn -0.288142 0.093708 0.952992
vn -0.302127 0.019093 0.953076
vn -0.297117 -0.056593 0.953163
vn -0.273472 -0.128601 0.953244
vn -0.232715 -0.192434 0.953317
vn -0.177426 -0.244122 0.953375
vn -0.111076 -0.280462 0.953417
vn -0.037810 -0.299210 0.953438
vn 0.037809 -0.299210 0.953438
vn 0.111077 -0.280462 0.953417
vn 0.177426 -0.244122 0.953375
vn 0.232715 -0.192434 0.953317
vn 0.273472 -0.128601 0.953244
vn 0.297117 -0.056593 0.953163
vn 0.302127 0.019093 0.953076
vn 0.288143 0.093708 0.952991
vn 0.255998 0.162547 0.952913
vn 0.207686 0.221249 0.952846
vn 0.146231 0.266079 0.952795
vn 0.075511 0.294178 0.952763
vn 0.000001 0.303749 0.952752
s 1
g pCylinder2
usemtl initialShadingGroup
f 1/1/1 2/2/2 27/28/3 26/27/4
f 2/2/2 3/3/5 28/29/6 27/28/3
f 3/3/5 4/4/7 29/30/8 28/29/6
f 4/4/7 5/5/9 30/31/10 29/30/8
f 5/5/9 6/6/11 31/32/12 30/31/10
f 6/6/11 7/7/13 32/33/14 31/32/12
f 7/7/13 8/8/15 33/34/16 32/33/14
f 8/8/15 9/9/17 34/35/18 33/34/16
f 9/9/17 10/10/19 35/36/20 34/35/18
f 10/10/19 11/11/21 36/37/22 35/36/20
f 11/11/21 12/12/23 37/38/24 36/37/22
f 12/12/23 13/13/25 38/39/26 37/38/24
f 13/13/25 14/14/27 39/40/28 38/39/26
f 14/14/27 15/15/29 40/41/30 39/40/28
f 15/15/29 16/16/31 41/42/32 40/41/30
f 16/16/31 17/17/33 42/43/34 41/42/32
f 17/17/33 18/18/35 43/44/36 42/43/34
f 18/18/35 19/19/37 44/45/38 43/44/36
f 19/19/37 20/20/39 45/46/40 44/45/38
f 20/20/39 21/21/41 46/47/42 45/46/40
f 21/21/41 22/22/43 47/48/44 46/47/42
f 22/22/43 23/23/45 48/49/46 47/48/44
f 23/23/45 24/24/47 49/50/48 48/49/46
f 24/24/47 25/25/49 50/51/50 49/50/48
f 25/25/49 1/26/1 26/52/4 50/51/50
f 26/27/4 27/28/3 52/54/51 51/53/52
f 27/28/3 28/29/6 53/55/53 52/54/51
f 28/29/6 29/30/8 54/56/54 53/55/53
f 29/30/8 30/31/10 55/57/55 54/56/54
f 30/31/10 31/32/12 56/58/56 55/57/55
f 31/32/12 32/33/14 57/59/57 56/58/56
f 32/33/14 33/34/16 58/60/58 57/59/57
f 33/34/16 34/35/18 59/61/59 58/60/58
f 34/35/18 35/36/20 60/62/60 59/61/59
f 35/36/20 36/37/22 61/63/61 60/62/60
f 36/37/22 37/38/24 62/64/62 61/63/61
f 37/38/24 38/39/26 63/65/63 62/64/62
f 38/39/26 39/40/28 64/66/64 63/65/63
f 39/40/28 40/41/30 65/67/65 64/66/64
f 40/41/30 41/42/32 66/68/66 65/67/65
f 41/42/32 42/43/34 67/69/67 66/68/66
f 42/43/34 43/44/36 68/70/68 67/69/67
f 43/44/36 44/45/38 69/71/69 68/70/68
f 44/45/38 45/46/40 70/72/70 69/71/69
f 45/46/40 46/47/42 71/73/71 70/72/70
f 46/47/42 47/48/44 72/74/72 71/73/71
f 47/48/44 48/49/46 73/75/73 72/74/72
f 48/49/46 49/50/48 74/76/74 73/75/73
f 49/50/48 50/51/50 75/77/75 74/76/74
f 50/51/50 26/52/4 51/78/52 75/77/75
