# This file uses centimeters as units for non-parametric coordinates.

mtllib wall.mtl
v -10.117479 18.731686 0.675001
v -8.759602 18.731686 0.675001
v -5.000623 18.731686 0.675001
v -2.873343 18.731686 0.675001
v 0.000000 18.731686 0.675001
v -10.117479 12.391441 0.675001
v -8.759602 12.391441 0.675001
v -1.899366 12.391441 0.675001
v 2.873343 18.731686 0.675001
v 5.000623 18.731686 0.675001
v 8.759602 18.731686 0.675001
v 10.990230 18.731686 0.675001
v 1.899366 12.391441 0.675001
v 8.759602 12.391441 0.675001
v 10.990230 12.391441 0.675001
v -10.117479 6.632007 0.675001
v -8.759602 6.632007 0.675001
v -1.899366 6.632007 0.675001
v -10.117479 -0.102667 0.675001
v -8.759602 -0.102667 0.675001
v -1.845351 -0.102667 0.675001
v 0.000000 -0.102667 0.675001
v 1.899366 6.632007 0.675001
v 8.759602 6.632007 0.675001
v 10.990230 6.632007 0.675001
v 1.845351 -0.102667 0.675001
v 8.759602 -0.102667 0.675001
v 10.990230 -0.102667 0.675001
v -10.117479 18.731686 -0.355123
v -8.759602 18.731686 -0.355123
v -5.000623 18.731686 -0.355123
v -2.873343 18.731686 -0.355123
v 0.000000 18.731686 -0.355123
v -10.117479 12.391441 -0.355123
v -8.759602 12.391441 -0.355123
v -1.899366 12.391441 -0.355123
v 2.873343 18.731686 -0.355123
v 5.000623 18.731686 -0.355123
v 8.759602 18.731686 -0.355123
v 10.990230 18.731686 -0.355123
v 1.899366 12.391441 -0.355123
v 8.759602 12.391441 -0.355123
v 10.990230 12.391441 -0.355123
v -10.117479 6.632007 -0.355123
v -8.759602 6.632007 -0.355123
v -1.899366 6.632007 -0.355123
v -10.117479 -0.102667 -0.355123
v -8.759602 -0.102667 -0.355123
v -1.845351 -0.102667 -0.355123
v 0.000000 -0.102667 -0.355123
v 1.899366 6.632007 -0.355123
v 8.759602 6.632007 -0.355123
v 10.990230 6.632007 -0.355123
v 1.845351 -0.102667 -0.355123
v 8.759602 -0.102667 -0.355123
v 10.990230 -0.102667 -0.355123
v -1.406981 18.731686 0.675001
v -1.406981 18.731686 -0.355123
v 1.406981 18.731686 0.675001
v 1.406981 18.731686 -0.355123
v 0.000000 6.619069 -0.355123
v -1.797023 12.263863 -0.223817
v -1.361642 12.760181 -0.223817
v -1.797023 6.814762 -0.223817
v 0.000000 6.814762 -0.223817
v -1.131491 13.151587 -0.355123
v -0.554189 13.343251 -0.355123
v -1.066875 12.971366 -0.223817
v -0.522413 13.152296 -0.223817
v -1.445945 12.927058 -0.355123
v 1.797023 12.263863 -0.223817
v 1.361642 12.760181 -0.223817
v 1.797023 6.814762 -0.223817
v 1.131491 13.151587 -0.355123
v 0.554189 13.343251 -0.355123
v 1.066875 12.971366 -0.223817
v 0.522413 13.152296 -0.223817
v 1.445945 12.927058 -0.355123
v 0.000000 13.428401 -0.355123
v 0.000000 13.232708 -0.223817
v 0.000000 6.619069 0.675001
v -1.445947 12.927058 0.675001
v 0.000000 13.428401 0.675001
v -0.554189 13.343251 0.675001
v -1.131491 13.151587 0.675001
v 1.445947 12.927058 0.675001
v 0.554189 13.343251 0.675001
v 1.131491 13.151587 0.675001
v -1.361642 12.760181 0.543696
v -1.797023 12.263863 0.543696
v -1.797023 6.814762 0.543696
v 0.000000 6.814762 0.543696
v -0.522413 13.152296 0.543696
v -1.066875 12.971366 0.543696
v 1.797023 12.263863 0.543696
v 1.361642 12.760181 0.543696
v 1.797023 6.814762 0.543696
v 1.066875 12.971366 0.543696
v 0.522413 13.152296 0.543696
v 0.000000 13.232708 0.543696
v -1.939217 13.649356 0.286197
v -1.721263 13.649356 0.286197
v -1.274219 13.649356 0.286197
v -1.472991 12.625237 0.286197
v -0.474503 13.163538 0.286197
v -0.410473 13.649356 0.286197
v 0.000000 13.649356 0.286197
v -1.329376 12.368512 0.118083
v -1.721263 13.649356 0.000000
v -1.274219 13.649356 0.000000
v -1.939217 12.356085 0.000000
v -0.410473 13.649356 0.000000
v 0.410473 13.649356 0.286197
v 0.474503 13.163538 0.286197
v 0.860594 13.649356 0.286197
v 1.939217 13.649356 0.286197
v 1.721264 12.356085 0.286197
v 1.939217 12.356085 0.286197
v 0.428241 12.854328 0.118083
v 1.329376 12.368512 0.118083
v 1.274219 13.649356 0.000000
v 1.721264 13.649356 0.000000
v 1.939217 13.649356 0.000000
v -1.721263 6.559703 0.286197
v 0.000000 6.559703 0.286197
v 0.000000 6.771836 0.286197
v -1.553439 7.085816 0.118083
v 0.000000 7.085816 0.118083
v 1.721264 6.559703 0.286197
v 1.721264 6.771836 0.286197
v 1.939217 6.559703 0.286197
v 1.939217 6.559703 0.000000
v -0.897847 12.655585 -0.118083
v -1.553439 12.125602 -0.118083
v -1.329376 12.368512 -0.118083
v -1.721263 13.649356 -0.286197
v -0.994843 12.943324 -0.286197
v -1.939217 12.356085 -0.286197
v -1.721263 12.356085 -0.286197
v -0.410473 13.649356 -0.286197
v 0.000000 13.212475 -0.286197
v 0.428241 12.854328 -0.118083
v 0.897847 12.655585 -0.118083
v 0.474503 13.163538 -0.286197
v 0.994843 12.943324 -0.286197
v 1.274219 13.649356 -0.286197
v 1.721264 13.649356 -0.286197
v 1.939217 12.356085 -0.286197
v 0.000000 7.085816 -0.118083
v -1.939217 6.559703 -0.286197
v -1.939217 6.771836 -0.286197
v 0.000000 6.771836 -0.286197
v 1.721264 6.559703 -0.286197
v 1.721264 6.771836 -0.286197
v 1.939217 6.559703 -0.286197
vt 0.550740 0.038050
vt 0.521140 0.030920
vt 0.529040 0.007060
vt 0.571390 0.024520
vt 0.550810 0.491930
vt 0.523170 0.492630
vt 0.527630 0.329060
vt 0.561760 0.331400
vt 0.566870 0.506470
vt 0.587870 0.334170
vt 0.530060 0.516240
vt 0.429970 0.027490
vt 0.431400 0.001970
vt 0.362380 0.524430
vt 0.544530 0.680560
vt 0.372150 0.693130
vt 0.318290 0.526000
vt 0.317220 0.499890
vt 0.360340 0.498200
vt 0.563890 0.184870
vt 0.529010 0.185200
vt 0.589500 0.184380
vt 0.578190 0.677150
vt 0.583460 0.823000
vt 0.549720 0.825010
vt 0.377740 0.834610
vt 0.555690 0.983190
vt 0.589500 0.981380
vt 0.355160 0.187430
vt 0.300800 0.028950
vt 0.300000 0.003150
vt 0.337290 0.002330
vt 0.337490 0.028060
vt 0.375510 0.027550
vt 0.375970 0.001950
vt 0.359500 0.328170
vt 0.030150 0.058520
vt 0.008710 0.046120
vt 0.070960 0.020030
vt 0.078880 0.044050
vt 0.063330 0.508630
vt 0.040700 0.350230
vt 0.096040 0.343360
vt 0.110990 0.507570
vt 0.047920 0.524120
vt 0.014880 0.354920
vt 0.107440 0.532530
vt 0.168450 0.010070
vt 0.171230 0.035480
vt 0.274280 0.527530
vt 0.277050 0.696510
vt 0.104110 0.696400
vt 0.274080 0.501210
vt 0.027560 0.204520
vt 0.084830 0.200850
vt 0.001950 0.205610
vt 0.107570 0.839780
vt 0.051980 0.839760
vt 0.048460 0.694440
vt 0.111130 0.997730
vt 0.280090 0.838130
vt 0.055390 0.998040
vt 0.257030 0.190150
vt 0.264080 0.030330
vt 0.262700 0.004640
vt 0.223950 0.006660
vt 0.225970 0.032190
vt 0.263870 0.331200
vt 0.324550 0.693240
vt 0.358680 0.854430
vt 0.407220 0.990560
vt 0.369780 0.992080
vt 0.343970 0.859790
vt 0.366620 0.848550
vt 0.461220 0.988040
vt 0.300340 0.856490
vt 0.315360 0.860800
vt 0.297740 0.994470
vt 0.260230 0.995430
vt 0.206060 0.996460
vt 0.292070 0.851190
vt 0.333770 0.993360
vt 0.329730 0.862400
vt 0.368380 0.698340
vt 0.324710 0.699030
vt 0.373520 0.831410
vt 0.342730 0.854120
vt 0.356390 0.849180
vt 0.363470 0.843830
vt 0.281160 0.701380
vt 0.284100 0.834650
vt 0.294790 0.846280
vt 0.302280 0.851070
vt 0.316200 0.855060
vt 0.329520 0.856540
vt 0.311890 0.336510
vt 0.342910 0.173510
vt 0.305150 0.161070
vt 0.319560 0.162820
vt 0.334590 0.167780
vt 0.268290 0.175570
vt 0.290880 0.163590
vt 0.276200 0.169370
vt 0.335180 0.198540
vt 0.328680 0.191400
vt 0.340190 0.178270
vt 0.351430 0.191250
vt 0.339630 0.313080
vt 0.355380 0.323000
vt 0.311200 0.313220
vt 0.311740 0.331660
vt 0.323790 0.188510
vt 0.314710 0.185140
vt 0.318710 0.168130
vt 0.332520 0.172900
vt 0.277820 0.199660
vt 0.261060 0.193650
vt 0.271330 0.180130
vt 0.283620 0.192350
vt 0.282590 0.314640
vt 0.267570 0.325730
vt 0.288160 0.189220
vt 0.278580 0.174280
vt 0.292080 0.168820
vt 0.296970 0.185510
vt 0.305790 0.183650
vt 0.305330 0.166760
vn 0.000000 1.000000 0.000000
vn 0.000000 1.000000 0.000000
vn 0.000000 1.000000 0.000000
vn 0.000000 1.000000 0.000000
vn 0.000000 0.000000 1.000000
vn 0.000000 0.000000 1.000000
vn 0.000000 0.000000 1.000000
vn 0.000000 0.000000 1.000000
vn -1.000000 0.000000 0.000000
vn -1.000000 0.000000 0.000000
vn -1.000000 0.000000 0.000000
vn -1.000000 0.000000 0.000000
vn 0.000000 -1.000000 0.000000
vn 0.000000 -1.000000 0.000000
vn 0.000000 -1.000000 0.000000
vn 0.000000 -1.000000 0.000000
vn 0.000000 1.000000 0.000000
vn 0.000000 1.000000 0.000000
vn 0.000000 1.000000 0.000000
vn 0.000000 1.000000 0.000000
vn 0.000000 0.000000 -1.000000
vn 0.000000 0.000000 -1.000000
vn 0.000000 0.000000 -1.000000
vn 0.000000 0.000000 -1.000000
vn 0.000000 -1.000000 0.000000
vn 0.000000 -1.000000 0.000000
vn 0.000000 -1.000000 0.000000
vn 0.000000 -1.000000 0.000000
vn 0.000000 0.000000 1.000000
vn 0.000000 0.000000 1.000000
vn 0.000000 0.000000 1.000000
vn 0.000000 0.000000 1.000000
vn -1.000000 0.000000 0.000000
vn -1.000000 0.000000 0.000000
vn -1.000000 0.000000 0.000000
vn -1.000000 0.000000 0.000000
vn 0.000000 0.000000 -1.000000
vn 0.000000 0.000000 -1.000000
vn 0.000000 0.000000 -1.000000
vn 0.000000 0.000000 -1.000000
vn 0.000000 0.000000 -1.000000
vn 0.000000 0.000000 -1.000000
vn 0.000000 0.000000 -1.000000
vn 0.000000 0.000000 1.000000
vn 0.000000 0.000000 1.000000
vn 0.000000 0.000000 1.000000
vn 0.000000 0.000000 1.000000
vn -1.000000 0.000000 0.000000
vn -1.000000 0.000000 0.000000
vn -1.000000 0.000000 0.000000
vn -1.000000 0.000000 0.000000
vn 0.000000 0.000000 -1.000000
vn 0.000000 0.000000 -1.000000
vn 0.000000 0.000000 -1.000000
vn 0.000000 0.000000 -1.000000
vn 0.000000 0.000000 1.000000
vn 0.000000 0.000000 1.000000
vn 0.000000 0.000000 1.000000
vn 0.000000 0.000000 -1.000000
vn 0.000000 0.000000 -1.000000
vn 0.000000 0.000000 -1.000000
vn 0.000000 0.000000 -1.000000
vn 0.000000 1.000000 0.000000
vn 0.000000 1.000000 0.000000
vn 0.000000 1.000000 0.000000
vn 0.000000 1.000000 0.000000
vn 0.000000 1.000000 0.000000
vn 0.000000 1.000000 0.000000
vn 0.000000 1.000000 0.000000
vn 0.000000 1.000000 0.000000
vn 0.000000 0.000000 1.000000
vn 0.000000 0.000000 1.000000
vn 0.000000 0.000000 1.000000
vn 0.000000 0.000000 1.000000
vn 0.000000 -1.000000 0.000000
vn 0.000000 -1.000000 0.000000
vn 0.000000 -1.000000 0.000000
vn 0.000000 -1.000000 0.000000
vn 0.000000 1.000000 0.000000
vn 0.000000 1.000000 0.000000
vn 0.000000 1.000000 0.000000
vn 0.000000 1.000000 0.000000
vn 0.000000 0.000000 1.000000
vn 0.000000 0.000000 1.000000
vn 0.000000 0.000000 1.000000
vn 0.000000 0.000000 1.000000
vn 1.000000 0.000000 0.000000
vn 1.000000 0.000000 0.000000
vn 1.000000 0.000000 0.000000
vn 1.000000 0.000000 0.000000
vn 0.000000 -1.000000 0.000000
vn 0.000000 -1.000000 0.000000
vn 0.000000 -1.000000 0.000000
vn 0.000000 -1.000000 0.000000
vn 0.000000 1.000000 0.000000
vn 0.000000 1.000000 0.000000
vn 0.000000 1.000000 0.000000
vn 0.000000 1.000000 0.000000
vn 0.000000 0.000000 -1.000000
vn 0.000000 0.000000 -1.000000
vn 0.000000 0.000000 -1.000000
vn 0.000000 0.000000 -1.000000
vn 0.000000 -1.000000 0.000000
vn 0.000000 -1.000000 0.000000
vn 0.000000 -1.000000 0.000000
vn 0.000000 -1.000000 0.000000
vn 0.000000 0.000000 1.000000
vn 0.000000 0.000000 1.000000
vn 0.000000 0.000000 1.000000
vn 0.000000 0.000000 1.000000
vn 1.000000 0.000000 0.000000
vn 1.000000 0.000000 0.000000
vn 1.000000 0.000000 0.000000
vn 1.000000 0.000000 0.000000
vn 0.000000 0.000000 -1.000000
vn 0.000000 0.000000 -1.000000
vn 0.000000 0.000000 -1.000000
vn 0.000000 0.000000 -1.000000
vn 0.000000 0.000000 -1.000000
vn 0.000000 0.000000 -1.000000
vn 0.000000 0.000000 -1.000000
vn 0.000000 0.000000 1.000000
vn 0.000000 0.000000 1.000000
vn 0.000000 0.000000 1.000000
vn 0.000000 0.000000 1.000000
vn 1.000000 0.000000 0.000000
vn 1.000000 0.000000 0.000000
vn 1.000000 0.000000 0.000000
vn 1.000000 0.000000 0.000000
vn 0.000000 0.000000 -1.000000
vn 0.000000 0.000000 -1.000000
vn 0.000000 0.000000 -1.000000
vn 0.000000 0.000000 -1.000000
vn 0.000000 0.000000 1.000000
vn 0.000000 0.000000 1.000000
vn 0.000000 0.000000 1.000000
vn 0.000000 0.000000 -1.000000
vn 0.000000 0.000000 -1.000000
vn 0.000000 0.000000 -1.000000
vn 0.000000 0.000000 -1.000000
vn 0.000000 1.000000 0.000000
vn 0.000000 1.000000 0.000000
vn 0.000000 1.000000 0.000000
vn 0.000000 1.000000 0.000000
vn 0.000000 1.000000 0.000000
vn 0.000000 1.000000 0.000000
vn 0.000000 1.000000 0.000000
vn 0.000000 1.000000 0.000000
vn 0.000000 0.000000 1.000000
vn 0.000000 0.000000 1.000000
vn 0.000000 0.000000 1.000000
vn 0.000000 0.000000 1.000000
vn 0.000000 -1.000000 0.000000
vn 0.000000 -1.000000 0.000000
vn 0.000000 -1.000000 0.000000
vn 0.000000 -1.000000 0.000000
vn 0.000000 1.000000 0.000000
vn 0.000000 1.000000 0.000000
vn 0.000000 1.000000 0.000000
vn 0.000000 1.000000 0.000000
vn 0.000000 1.000000 0.000000
vn 0.000000 1.000000 0.000000
vn 0.000000 1.000000 0.000000
vn 0.000000 1.000000 0.000000
vn 0.000000 0.000000 -1.000000
vn 0.000000 0.000000 -1.000000
vn 0.000000 0.000000 -1.000000
vn 0.000000 0.000000 -1.000000
vn 0.000000 0.000000 -1.000000
vn 0.000000 0.000000 -1.000000
vn 0.000000 0.000000 -1.000000
vn 0.000000 0.000000 -1.000000
vn 0.000000 0.000000 -1.000000
vn 0.000000 0.000000 -1.000000
vn 0.000000 0.000000 -1.000000
vn 0.000000 0.000000 -1.000000
vn -0.000000 0.000000 -1.000000
vn -0.000000 0.000000 -1.000000
vn -0.000000 0.000000 -1.000000
vn -0.000000 0.000000 -1.000000
vn 0.000000 0.000000 -1.000000
vn 0.000000 0.000000 -1.000000
vn 0.000000 0.000000 -1.000000
vn 0.000000 0.000000 -1.000000
vn 0.000000 0.000000 -1.000000
vn 0.000000 0.000000 -1.000000
vn 0.000000 0.000000 -1.000000
vn 0.000000 0.000000 -1.000000
vn 0.000000 0.000000 -1.000000
vn 0.000000 0.000000 -1.000000
vn 0.000000 0.000000 -1.000000
vn 0.000000 0.000000 -1.000000
vn 0.000000 0.000000 -1.000000
vn 0.000000 0.000000 -1.000000
vn 0.000000 0.000000 -1.000000
vn 0.000000 0.000000 -1.000000
vn 0.000000 0.000000 -1.000000
vn 0.000000 0.000000 -1.000000
vn 0.000000 0.000000 -1.000000
vn 0.000000 0.000000 -1.000000
vn -0.000000 0.000000 -1.000000
vn -0.000000 0.000000 -1.000000
vn -0.000000 0.000000 -1.000000
vn -0.000000 0.000000 -1.000000
vn 0.000000 0.000000 -1.000000
vn 0.000000 0.000000 -1.000000
vn 0.000000 0.000000 -1.000000
vn 0.000000 0.000000 -1.000000
vn 0.000000 0.000000 -1.000000
vn 0.000000 0.000000 -1.000000
vn 0.000000 0.000000 -1.000000
vn 0.000000 0.000000 -1.000000
vn 0.001994 0.569740 -0.821823
vn 0.001994 0.569740 -0.821823
vn 0.001994 0.569740 -0.821823
vn 0.001994 0.569740 -0.821823
vn 0.788723 0.000000 -0.614749
vn 0.788723 0.000000 -0.614749
vn 0.788723 0.000000 -0.614749
vn 0.788723 0.000000 -0.614749
vn 0.178371 -0.537020 -0.824496
vn 0.178371 -0.537020 -0.824496
vn 0.178371 -0.537020 -0.824496
vn 0.178371 -0.537020 -0.824496
vn 0.337334 -0.471666 -0.814700
vn 0.337334 -0.471666 -0.814700
vn 0.337334 -0.471666 -0.814700
vn 0.337334 -0.471666 -0.814700
vn 0.468686 -0.403677 -0.785734
vn 0.468686 -0.403677 -0.785734
vn 0.468686 -0.403677 -0.785734
vn 0.468686 -0.403677 -0.785734
vn -0.001994 0.569740 -0.821823
vn -0.001994 0.569740 -0.821823
vn -0.001994 0.569740 -0.821823
vn -0.001994 0.569740 -0.821823
vn -0.468686 -0.403677 -0.785734
vn -0.468686 -0.403677 -0.785734
vn -0.468686 -0.403677 -0.785734
vn -0.468686 -0.403677 -0.785734
vn -0.788723 0.000000 -0.614749
vn -0.788723 0.000000 -0.614749
vn -0.788723 0.000000 -0.614749
vn -0.788723 0.000000 -0.614749
vn -0.178371 -0.537020 -0.824496
vn -0.178371 -0.537020 -0.824496
vn -0.178371 -0.537020 -0.824496
vn -0.178371 -0.537020 -0.824496
vn -0.337334 -0.471666 -0.814700
vn -0.337334 -0.471666 -0.814700
vn -0.337334 -0.471666 -0.814700
vn -0.337334 -0.471666 -0.814700
vn 0.085349 -0.554999 -0.827461
vn 0.085349 -0.554999 -0.827461
vn 0.085349 -0.554999 -0.827461
vn 0.085349 -0.554999 -0.827461
vn -0.085349 -0.554999 -0.827461
vn -0.085349 -0.554999 -0.827461
vn -0.085349 -0.554999 -0.827461
vn -0.085349 -0.554999 -0.827461
vn 0.000000 0.000000 1.000000
vn 0.000000 0.000000 1.000000
vn 0.000000 0.000000 1.000000
vn 0.000000 0.000000 1.000000
vn 0.000000 0.000000 1.000000
vn 0.000000 0.000000 1.000000
vn 0.000000 0.000000 1.000000
vn 0.000000 0.000000 1.000000
vn 0.000000 0.000000 1.000000
vn 0.000000 0.000000 1.000000
vn 0.000000 0.000000 1.000000
vn 0.000000 0.000000 1.000000
vn 0.000000 0.000000 1.000000
vn 0.000000 0.000000 1.000000
vn 0.000000 0.000000 1.000000
vn 0.000000 0.000000 1.000000
vn 0.000000 0.000000 1.000000
vn 0.000000 0.000000 1.000000
vn 0.000000 0.000000 1.000000
vn 0.000000 0.000000 1.000000
vn 0.000000 0.000000 1.000000
vn 0.000000 0.000000 1.000000
vn 0.000000 0.000000 1.000000
vn 0.000000 0.000000 1.000000
vn 0.000000 0.000000 1.000000
vn 0.000000 0.000000 1.000000
vn 0.000000 0.000000 1.000000
vn 0.000000 0.000000 1.000000
vn 0.000000 0.000000 1.000000
vn 0.000000 0.000000 1.000000
vn 0.000000 0.000000 1.000000
vn 0.000000 0.000000 1.000000
vn 0.000000 0.000000 1.000000
vn 0.000000 0.000000 1.000000
vn 0.000000 0.000000 1.000000
vn 0.000000 0.000000 1.000000
vn 0.000000 0.000000 1.000000
vn 0.000000 0.000000 1.000000
vn 0.000000 0.000000 1.000000
vn 0.000000 0.000000 1.000000
vn 0.000000 0.000000 1.000000
vn 0.000000 0.000000 1.000000
vn 0.000000 0.000000 1.000000
vn 0.000000 0.000000 1.000000
vn 0.000000 0.000000 1.000000
vn 0.000000 0.000000 1.000000
vn 0.000000 0.000000 1.000000
vn 0.000000 0.000000 1.000000
vn 0.751748 -0.659450 0.000000
vn 0.751748 -0.659450 0.000000
vn 0.751748 -0.659450 0.000000
vn 0.751748 -0.659450 0.000000
vn 1.000000 0.000000 0.000000
vn 1.000000 0.000000 0.000000
vn 1.000000 0.000000 0.000000
vn 1.000000 0.000000 0.000000
vn 0.000000 1.000000 0.000000
vn 0.000000 1.000000 0.000000
vn 0.000000 1.000000 0.000000
vn 0.000000 1.000000 0.000000
vn 0.315353 -0.948974 0.000000
vn 0.315353 -0.948974 0.000000
vn 0.315353 -0.948974 0.000000
vn 0.315353 -0.948974 0.000000
vn 0.582401 -0.812902 0.000000
vn 0.582401 -0.812902 0.000000
vn 0.582401 -0.812902 0.000000
vn 0.582401 -0.812902 0.000000
vn -0.751748 -0.659450 0.000000
vn -0.751748 -0.659450 0.000000
vn -0.751748 -0.659450 0.000000
vn -0.751748 -0.659450 0.000000
vn -1.000000 0.000000 0.000000
vn -1.000000 0.000000 0.000000
vn -1.000000 0.000000 0.000000
vn -1.000000 0.000000 0.000000
vn 0.000000 1.000000 0.000000
vn 0.000000 1.000000 0.000000
vn 0.000000 1.000000 0.000000
vn 0.000000 1.000000 0.000000
vn -0.315353 -0.948974 0.000000
vn -0.315353 -0.948974 0.000000
vn -0.315353 -0.948974 0.000000
vn -0.315353 -0.948974 0.000000
vn -0.582401 -0.812902 0.000000
vn -0.582401 -0.812902 0.000000
vn -0.582401 -0.812902 0.000000
vn -0.582401 -0.812902 0.000000
vn 0.152133 -0.988360 0.000000
vn 0.152133 -0.988360 0.000000
vn 0.152133 -0.988360 0.000000
vn 0.152133 -0.988360 0.000000
vn -0.152133 -0.988360 0.000000
vn -0.152133 -0.988360 0.000000
vn -0.152133 -0.988360 0.000000
vn -0.152133 -0.988360 0.000000
vn 0.337331 -0.471663 0.814703
vn 0.337331 -0.471663 0.814703
vn 0.337331 -0.471663 0.814703
vn 0.337331 -0.471663 0.814703
vn -0.468683 -0.403674 0.785738
vn -0.468683 -0.403674 0.785738
vn -0.468683 -0.403674 0.785738
vn -0.468683 -0.403674 0.785738
vn -0.788720 0.000000 0.614752
vn -0.788720 0.000000 0.614752
vn -0.788720 0.000000 0.614752
vn -0.788720 0.000000 0.614752
vn -0.085348 -0.554996 0.827463
vn -0.085348 -0.554996 0.827463
vn -0.085348 -0.554996 0.827463
vn -0.085348 -0.554996 0.827463
vn -0.337331 -0.471663 0.814703
vn -0.337331 -0.471663 0.814703
vn -0.337331 -0.471663 0.814703
vn -0.337331 -0.471663 0.814703
vn 0.178370 -0.537018 0.824498
vn 0.178370 -0.537018 0.824498
vn 0.178370 -0.537017 0.824498
vn 0.178370 -0.537018 0.824498
vn 0.468683 -0.403674 0.785738
vn 0.468683 -0.403674 0.785738
vn 0.468683 -0.403674 0.785738
vn 0.468683 -0.403674 0.785738
vn 0.788720 0.000000 0.614752
vn 0.788720 0.000000 0.614752
vn 0.788720 0.000000 0.614752
vn 0.788720 0.000000 0.614752
vn 0.001994 0.569737 0.821825
vn 0.001994 0.569737 0.821825
vn 0.001994 0.569737 0.821825
vn 0.001994 0.569737 0.821825
vn -0.001994 0.569737 0.821825
vn -0.001994 0.569737 0.821825
vn -0.001994 0.569737 0.821825
vn -0.001994 0.569737 0.821825
vn -0.178370 -0.537018 0.824497
vn -0.178371 -0.537018 0.824497
vn -0.178371 -0.537018 0.824497
vn -0.178370 -0.537018 0.824497
vn 0.085349 -0.554996 0.827463
vn 0.085349 -0.554996 0.827463
vn 0.085349 -0.554996 0.827463
vn 0.085349 -0.554996 0.827463
s off
usemtl WALL:lambert2SG
f 1/1/1 2/2/2 30/3/3 29/4/4
f 19/5/5 20/6/6 17/7/7 16/8/8
f 47/9/9 19/5/10 16/8/11 44/10/12
f 47/9/13 48/11/14 20/6/15 19/5/16
f 2/2/17 3/12/18 31/13/19 30/3/20
f 49/14/21 48/11/22 45/15/23 46/16/24
f 49/14/25 50/17/26 22/18/27 21/19/28
f 6/20/29 7/21/30 2/2/31 1/1/32
f 34/22/33 6/20/34 1/1/35 29/4/36
f 45/15/37 44/23/38 34/24/39 35/25/40
f 36/26/41 35/25/42 30/27/43
f 16/8/44 17/7/45 7/21/46 6/20/47
f 44/10/48 16/8/49 6/20/50 34/22/51
f 35/25/52 34/24/53 29/28/54 30/27/55
f 7/21/56 8/29/57 2/2/58
f 48/11/59 47/9/60 44/23/61 45/15/62
f 5/30/63 33/31/64 58/32/65 57/33/66
f 3/12/67 4/34/68 32/35/69 31/13/70
f 20/6/71 21/19/72 18/36/73 17/7/74
f 48/11/75 49/14/76 21/19/77 20/6/78
f 12/37/79 40/38/80 39/39/81 11/40/82
f 28/41/83 25/42/84 24/43/85 27/44/86
f 56/45/87 53/46/88 25/42/89 28/41/90
f 56/45/91 28/41/92 27/44/93 55/47/94
f 11/40/95 39/39/96 38/48/97 10/49/98
f 54/50/99 51/51/100 52/52/101 55/47/102
f 54/50/103 26/53/104 22/18/105 50/17/106
f 15/54/107 12/37/108 11/40/109 14/55/110
f 43/56/111 40/38/112 12/37/113 15/54/114
f 52/52/115 42/57/116 43/58/117 53/59/118
f 39/60/119 42/57/120 41/61/121
f 25/42/122 15/54/123 14/55/124 24/43/125
f 53/46/126 43/56/127 15/54/128 25/42/129
f 42/57/130 39/60/131 40/62/132 43/58/133
f 11/40/134 13/63/135 14/55/136
f 55/47/137 52/52/138 53/59/139 56/45/140
f 5/30/141 59/64/142 60/65/143 33/31/144
f 10/49/145 38/48/146 37/66/147 9/67/148
f 27/44/149 24/43/150 23/68/151 26/53/152
f 55/47/153 27/44/154 26/53/155 54/50/156
f 57/33/157 58/32/158 32/35/159 4/34/160
f 59/64/161 9/67/162 37/66/163 60/65/164
f 50/17/165 49/14/166 46/16/167 61/69/168
f 46/16/169 45/15/170 35/25/171 36/26/172
f 66/70/173 32/71/174 58/72/175 67/73/176
f 66/70/177 70/74/178 31/75/179 32/71/180
f 70/74/181 36/26/182 30/27/183 31/75/184
f 50/17/185 61/69/186 51/51/187 54/50/188
f 51/51/189 41/61/190 42/57/191 52/52/192
f 74/76/193 75/77/194 60/78/195 37/79/196
f 74/76/197 37/79/198 38/80/199 78/81/200
f 78/81/201 38/80/202 39/60/203 41/61/204
f 67/73/205 58/72/206 33/82/207 79/83/208
f 75/77/209 79/83/210 33/82/211 60/78/212
f 64/84/213 65/85/214 61/69/215 46/16/216
f 62/86/217 64/84/218 46/16/219 36/26/220
f 66/70/221 67/73/222 69/87/223 68/88/224
f 70/74/225 66/70/226 68/88/227 63/89/228
f 63/89/229 62/86/230 36/26/231 70/74/232
f 65/85/233 73/90/234 51/51/235 61/69/236
f 78/81/237 41/61/238 71/91/239 72/92/240
f 41/61/241 51/51/242 73/90/243 71/91/244
f 76/93/245 77/94/246 75/77/247 74/76/248
f 74/76/249 78/81/250 72/92/251 76/93/252
f 80/95/253 69/87/254 67/73/255 79/83/256
f 79/83/257 75/77/258 77/94/259 80/95/260
f 21/19/261 22/18/262 81/96/263 18/36/264
f 8/29/265 82/97/266 3/12/267 2/2/268
f 17/7/269 18/36/270 8/29/271 7/21/272
f 83/98/273 5/30/274 57/33/275 84/99/276
f 82/97/277 85/100/278 4/34/279 3/12/280
f 26/53/281 23/68/282 81/96/283 22/18/284
f 13/63/285 11/40/286 10/49/287 86/101/288
f 24/43/289 14/55/290 13/63/291 23/68/292
f 83/98/293 87/102/294 59/64/295 5/30/296
f 86/101/297 10/49/298 9/67/299 88/103/300
f 84/99/301 57/33/302 4/34/303 85/100/304
f 87/102/305 88/103/306 9/67/307 59/64/308
f 62/104/309 63/105/310 89/106/311 90/107/312
f 64/108/313 62/104/314 90/107/315 91/109/316
f 65/110/317 64/108/318 91/109/319 92/111/320
f 68/112/321 69/113/322 93/114/323 94/115/324
f 63/105/325 68/112/326 94/115/327 89/106/328
f 71/116/329 95/117/330 96/118/331 72/119/332
f 73/120/333 97/121/334 95/117/335 71/116/336
f 65/110/337 92/111/338 97/121/339 73/120/340
f 76/122/341 98/123/342 99/124/343 77/125/344
f 72/119/345 96/118/346 98/123/347 76/122/348
f 69/113/349 80/126/350 100/127/351 93/114/352
f 77/125/353 99/124/354 100/127/355 80/126/356
f 89/106/357 94/115/358 85/100/359 82/97/360
f 96/118/361 95/117/362 13/63/363 86/101/364
f 95/117/365 97/121/366 23/68/367 13/63/368
f 100/127/369 99/124/370 87/102/371 83/98/372
f 98/123/373 96/118/374 86/101/375 88/103/376
f 94/115/377 93/114/378 84/99/379 85/100/380
f 82/97/381 8/29/382 90/107/383 89/106/384
f 8/29/385 18/36/386 91/109/387 90/107/388
f 18/36/389 81/96/390 92/111/391 91/109/392
f 81/96/393 23/68/394 97/121/395 92/111/396
f 88/103/397 87/102/398 99/124/399 98/123/400
f 83/98/401 84/99/402 93/114/403 100/127/404
