# This file uses centimeters as units for non-parametric coordinates.

mtllib windowframe.mtl
g default
v -6.456151 13.700101 0.286197
v -6.238197 13.700101 0.286197
v -6.238197 13.700101 0.000000
v -6.456151 13.700101 0.000000
v -6.456151 6.610448 0.286197
v -6.238197 6.610448 0.286197
v -6.238197 6.822581 0.286197
v -6.456151 6.822581 0.286197
v -6.456151 6.610448 0.000000
v -6.456151 6.822581 0.000000
v -6.238197 6.610448 0.000000
v -6.456151 12.406830 0.286197
v -6.238197 12.406830 0.286197
v -6.456151 12.406830 0.000000
v -5.791153 13.700101 0.286197
v -5.791153 13.700101 0.000000
v -4.516934 6.610448 0.286197
v -4.516934 6.822581 0.286197
v -4.516934 6.610448 0.000000
v -5.989925 12.675983 0.286197
v -6.070373 7.136561 0.118083
v -6.070373 12.176347 0.118083
v -4.516934 13.263220 0.286197
v -4.991437 13.214283 0.286197
v -4.945175 12.905074 0.118083
v -4.516934 12.949238 0.118083
v -4.516934 7.136561 0.118083
v -5.377528 13.700101 0.286197
v -4.927407 13.700101 0.286197
v -4.927407 13.700101 0.000000
v -5.377528 13.700101 0.000000
v -5.511777 12.994070 0.286197
v -5.846310 12.419258 0.118083
v -5.414781 12.706331 0.118083
v -4.516934 13.700101 0.286197
v -4.516934 13.700101 0.000000
v -4.088693 12.905074 -0.118083
v -3.619087 12.706331 -0.118083
v -3.619087 12.706331 0.118083
v -4.088693 12.905074 0.118083
v -3.187558 12.419258 -0.118083
v -2.963495 12.176347 -0.118083
v -2.963495 12.176347 0.118083
v -3.187558 12.419258 0.118083
v -2.963495 7.136561 -0.118083
v -4.516934 7.136561 -0.118083
v -2.963495 7.136561 0.118083
v -4.516934 12.949238 -0.118083
v -2.577717 13.700101 0.286197
v -2.577717 13.700101 0.000000
v -2.795670 13.700101 0.000000
v -2.795670 13.700101 0.286197
v -2.577717 6.610448 0.286197
v -2.577717 6.822581 0.286197
v -2.795670 6.822581 0.286197
v -2.795670 6.610448 0.286197
v -2.577717 6.610448 0.000000
v -2.577717 6.822581 0.000000
v -2.795670 6.610448 0.000000
v -2.577717 12.406830 0.286197
v -2.795670 12.406830 0.286197
v -2.577717 12.406830 0.000000
v -3.242715 13.700101 0.000000
v -3.242715 13.700101 0.286197
v -3.043943 12.675983 0.286197
v -4.042431 13.214283 0.286197
v -3.656340 13.700101 0.286197
v -3.656340 13.700101 0.000000
v -4.106461 13.700101 0.000000
v -4.106461 13.700101 0.286197
v -3.522091 12.994070 0.286197
v -4.042431 13.214283 -0.286197
v -4.516934 13.263220 -0.286197
v -4.516934 13.700101 -0.286197
v -4.106461 13.700101 -0.286197
v -3.522091 12.994070 -0.286197
v -3.043943 12.675983 -0.286197
v -2.795670 12.406830 -0.286197
v -3.656340 13.700101 -0.286197
v -3.242715 13.700101 -0.286197
v -6.456151 13.700101 -0.286197
v -6.238197 13.700101 -0.286197
v -6.456151 6.610448 -0.286197
v -6.456151 6.822581 -0.286197
v -6.238197 6.822581 -0.286197
v -6.238197 6.610448 -0.286197
v -6.456151 12.406830 -0.286197
v -6.238197 12.406830 -0.286197
v -5.791153 13.700101 -0.286197
v -4.516934 6.822581 -0.286197
v -4.516934 6.610448 -0.286197
v -5.989925 12.675983 -0.286197
v -6.070373 12.176347 -0.118083
v -6.070373 7.136561 -0.118083
v -4.945175 12.905074 -0.118083
v -4.991437 13.214283 -0.286197
v -5.377528 13.700101 -0.286197
v -4.927407 13.700101 -0.286197
v -5.511777 12.994070 -0.286197
v -5.414781 12.706331 -0.118083
v -5.846310 12.419258 -0.118083
v -2.577717 13.700101 -0.286197
v -2.795670 13.700101 -0.286197
v -2.577717 6.610448 -0.286197
v -2.795670 6.610448 -0.286197
v -2.795670 6.822581 -0.286197
v -2.577717 6.822581 -0.286197
v -2.577717 12.406830 -0.286197
vt 0.705420 0.017110
vt 0.700770 0.015340
vt 0.704880 0.009280
vt 0.711720 0.013610
vt 0.696810 0.197460
vt 0.692760 0.198420
vt 0.692330 0.192770
vt 0.697970 0.193250
vt 0.701660 0.201300
vt 0.705100 0.195210
vt 0.695210 0.205460
vt 0.705590 0.048440
vt 0.699760 0.048120
vt 0.713120 0.048920
vt 0.689710 0.012600
vt 0.691690 0.005440
vt 0.649000 0.204390
vt 0.649180 0.198850
vt 0.648740 0.212020
vt 0.693110 0.040220
vt 0.686720 0.183720
vt 0.693350 0.054810
vt 0.654100 0.021170
vt 0.667030 0.023150
vt 0.665080 0.032350
vt 0.653830 0.030510
vt 0.649470 0.189810
vt 0.678580 0.011110
vt 0.666010 0.010110
vt 0.666570 0.002590
vt 0.679650 0.003670
vt 0.680780 0.030180
vt 0.687930 0.047250
vt 0.677200 0.038400
vt 0.654390 0.009620
vt 0.654560 0.002120
vt 0.643940 0.037740
vt 0.632990 0.042440
vt 0.630040 0.037100
vt 0.642500 0.031730
vt 0.623140 0.049460
vt 0.618950 0.054100
vt 0.612960 0.052470
vt 0.618790 0.045280
vt 0.617710 0.178250
vt 0.649660 0.184030
vt 0.612600 0.181420
vt 0.653630 0.036860
vt 0.603060 0.014310
vt 0.596970 0.010480
vt 0.604010 0.006540
vt 0.607800 0.012800
vt 0.601240 0.194710
vt 0.600840 0.190260
vt 0.606490 0.190200
vt 0.605730 0.195730
vt 0.596920 0.198320
vt 0.593550 0.191800
vt 0.603050 0.202650
vt 0.601100 0.045500
vt 0.606930 0.045480
vt 0.593550 0.045580
vt 0.617350 0.003420
vt 0.618990 0.010670
vt 0.614050 0.038000
vt 0.641070 0.022430
vt 0.630170 0.009790
vt 0.629450 0.002310
vt 0.642550 0.001950
vt 0.642770 0.009480
vt 0.626940 0.028690
vt 0.781750 0.021750
vt 0.769830 0.020150
vt 0.770040 0.009210
vt 0.780600 0.009460
vt 0.770190 0.002080
vt 0.780940 0.002330
vt 0.794570 0.028010
vt 0.791330 0.036020
vt 0.780050 0.030480
vt 0.806320 0.036850
vt 0.812750 0.043920
vt 0.806710 0.049820
vt 0.801670 0.043770
vt 0.792100 0.009990
vt 0.802390 0.010860
vt 0.792780 0.002890
vt 0.803870 0.003950
vt 0.722580 0.012400
vt 0.716860 0.009160
vt 0.723510 0.004950
vt 0.727120 0.011370
vt 0.720980 0.185550
vt 0.720510 0.181560
vt 0.725900 0.181670
vt 0.725400 0.186840
vt 0.717160 0.189680
vt 0.713580 0.183060
vt 0.723190 0.193300
vt 0.720760 0.042480
vt 0.726290 0.042600
vt 0.713580 0.042270
vt 0.736360 0.002680
vt 0.737580 0.009680
vt 0.767540 0.186690
vt 0.767500 0.192030
vt 0.767440 0.199320
vt 0.732910 0.035680
vt 0.732160 0.048690
vt 0.731730 0.173720
vt 0.769680 0.029010
vt 0.759290 0.030140
vt 0.757870 0.021340
vt 0.767570 0.177700
vt 0.747930 0.009190
vt 0.747560 0.002070
vt 0.759430 0.001950
vt 0.759470 0.009090
vt 0.744870 0.027170
vt 0.747860 0.035300
vt 0.737340 0.042760
vt 0.687290 0.056160
vt 0.681810 0.180260
vt 0.663270 0.038270
vt 0.673920 0.043550
vt 0.683340 0.051180
vt 0.817210 0.014280
vt 0.812800 0.012820
vt 0.816370 0.006840
vt 0.822980 0.010630
vt 0.813490 0.186620
vt 0.809600 0.187660
vt 0.809150 0.182390
vt 0.814540 0.182570
vt 0.818150 0.190150
vt 0.821390 0.184090
vt 0.811920 0.194290
vt 0.818300 0.043940
vt 0.825470 0.043920
vt 0.803550 0.174280
vn 0.000000 1.000000 0.000000
vn 0.000000 1.000000 0.000000
vn 0.000000 1.000000 0.000000
vn 0.000000 1.000000 0.000000
vn 0.000000 0.000000 1.000000
vn 0.000000 0.000000 1.000000
vn 0.000000 0.000000 1.000000
vn 0.000000 0.000000 1.000000
vn -1.000000 0.000000 0.000000
vn -1.000000 0.000000 0.000000
vn -1.000000 0.000000 0.000000
vn -1.000000 0.000000 0.000000
vn 0.000000 -1.000000 0.000000
vn 0.000000 -1.000000 0.000000
vn 0.000000 -1.000000 0.000000
vn 0.000000 -1.000000 0.000000
vn 0.000000 0.000000 1.000000
vn 0.000000 0.000000 1.000000
vn 0.000000 0.000000 1.000000
vn 0.000000 0.000000 1.000000
vn -1.000000 0.000000 0.000000
vn -1.000000 0.000000 0.000000
vn -1.000000 0.000000 0.000000
vn -1.000000 0.000000 0.000000
vn 0.000000 1.000000 0.000000
vn 0.000000 1.000000 0.000000
vn 0.000000 1.000000 0.000000
vn 0.000000 1.000000 0.000000
vn 0.000000 0.000000 1.000000
vn 0.000000 0.000000 1.000000
vn 0.000000 0.000000 1.000000
vn 0.000000 0.000000 1.000000
vn 0.000000 -1.000000 0.000000
vn 0.000000 -1.000000 0.000000
vn 0.000000 -1.000000 0.000000
vn 0.000000 -1.000000 0.000000
vn 0.000000 0.000000 1.000000
vn 0.000000 0.000000 1.000000
vn 0.000000 0.000000 1.000000
vn 0.000000 0.000000 1.000000
vn 0.000000 0.000000 1.000000
vn 0.000000 0.000000 1.000000
vn 0.000000 0.000000 1.000000
vn 0.000000 0.000000 1.000000
vn -1.000000 0.000000 0.000000
vn -1.000000 0.000000 0.000000
vn -1.000000 0.000000 0.000000
vn -1.000000 0.000000 0.000000
vn 0.707717 0.000000 0.706496
vn 0.707717 0.000000 0.706496
vn 0.707717 0.000000 0.706496
vn 0.707717 0.000000 0.706496
vn 0.048623 -0.471466 0.880543
vn 0.048623 -0.471466 0.880543
vn 0.048623 -0.471466 0.880543
vn 0.048623 -0.471466 0.880543
vn 0.000000 0.472026 0.881585
vn 0.000000 0.472026 0.881585
vn 0.000000 0.472026 0.881585
vn 0.000000 0.472026 0.881585
vn 0.000000 1.000000 0.000000
vn 0.000000 1.000000 0.000000
vn 0.000000 1.000000 0.000000
vn 0.000000 1.000000 0.000000
vn 0.000000 0.000000 1.000000
vn 0.000000 0.000000 1.000000
vn 0.000000 0.000000 1.000000
vn 0.000000 0.000000 1.000000
vn 0.275441 -0.414043 0.867583
vn 0.275441 -0.414043 0.867583
vn 0.275441 -0.414043 0.867583
vn 0.275441 -0.414043 0.867583
vn 0.000000 1.000000 0.000000
vn 0.000000 1.000000 0.000000
vn 0.000000 1.000000 0.000000
vn 0.000000 1.000000 0.000000
vn 0.000000 0.000000 1.000000
vn 0.000000 0.000000 1.000000
vn 0.000000 0.000000 1.000000
vn 0.000000 0.000000 1.000000
vn 0.378735 -0.349352 0.857037
vn 0.378735 -0.349352 0.857037
vn 0.378735 -0.349352 0.857037
vn 0.378735 -0.349352 0.857037
vn 0.189189 -0.447032 0.874282
vn 0.189189 -0.447032 0.874282
vn 0.189189 -0.447032 0.874283
vn 0.189189 -0.447032 0.874283
vn 0.000000 1.000000 0.000000
vn 0.000000 1.000000 0.000000
vn 0.000000 1.000000 0.000000
vn 0.000000 1.000000 0.000000
vn 0.000000 0.000000 1.000000
vn 0.000000 0.000000 1.000000
vn 0.000000 0.000000 1.000000
vn 0.000000 0.000000 1.000000
vn -0.389746 -0.920923 0.000000
vn -0.389746 -0.920923 0.000000
vn -0.389746 -0.920923 0.000000
vn -0.389746 -0.920923 0.000000
vn -0.735047 -0.678016 0.000000
vn -0.735047 -0.678016 0.000000
vn -0.735047 -0.678016 0.000000
vn -0.735047 -0.678016 0.000000
vn -0.553881 -0.832596 0.000000
vn -0.553881 -0.832596 0.000000
vn -0.553881 -0.832596 0.000000
vn -0.553881 -0.832596 0.000000
vn 0.000000 1.000000 0.000000
vn 0.000000 1.000000 0.000000
vn 0.000000 1.000000 0.000000
vn 0.000000 1.000000 0.000000
vn -0.102587 -0.994724 0.000000
vn -0.102587 -0.994724 0.000000
vn -0.102587 -0.994724 0.000000
vn -0.102587 -0.994724 0.000000
vn -1.000000 0.000000 0.000000
vn -1.000000 0.000000 0.000000
vn -1.000000 0.000000 0.000000
vn -1.000000 0.000000 0.000000
vn 0.000000 1.000000 0.000000
vn 0.000000 1.000000 0.000000
vn 0.000000 1.000000 0.000000
vn 0.000000 1.000000 0.000000
vn 0.000000 0.000000 1.000000
vn 0.000000 0.000000 1.000000
vn 0.000000 0.000000 1.000000
vn 0.000000 0.000000 1.000000
vn 1.000000 0.000000 0.000000
vn 1.000000 0.000000 0.000000
vn 1.000000 0.000000 0.000000
vn 1.000000 0.000000 0.000000
vn 0.000000 -1.000000 0.000000
vn 0.000000 -1.000000 0.000000
vn 0.000000 -1.000000 0.000000
vn 0.000000 -1.000000 0.000000
vn 0.000000 0.000000 1.000000
vn 0.000000 0.000000 1.000000
vn 0.000000 0.000000 1.000000
vn 0.000000 0.000000 1.000000
vn 1.000000 0.000000 0.000000
vn 1.000000 0.000000 0.000000
vn 1.000000 0.000000 0.000000
vn 1.000000 0.000000 0.000000
vn 0.000000 1.000000 0.000000
vn 0.000000 1.000000 0.000000
vn 0.000000 1.000000 0.000000
vn 0.000000 1.000000 0.000000
vn 0.000000 0.000000 1.000000
vn 0.000000 0.000000 1.000000
vn 0.000000 0.000000 1.000000
vn 0.000000 0.000000 1.000000
vn 0.000000 -1.000000 0.000000
vn 0.000000 -1.000000 0.000000
vn 0.000000 -1.000000 0.000000
vn 0.000000 -1.000000 0.000000
vn 0.000000 0.000000 1.000000
vn 0.000000 0.000000 1.000000
vn 0.000000 0.000000 1.000000
vn 0.000000 0.000000 1.000000
vn 0.000000 0.000000 1.000000
vn 0.000000 0.000000 1.000000
vn 0.000000 0.000000 1.000000
vn 0.000000 0.000000 1.000000
vn 1.000000 0.000000 0.000000
vn 1.000000 0.000000 0.000000
vn 1.000000 0.000000 0.000000
vn 1.000000 0.000000 0.000000
vn -0.707715 0.000000 0.706498
vn -0.707715 0.000000 0.706498
vn -0.707715 0.000000 0.706498
vn -0.707715 0.000000 0.706498
vn -0.048623 -0.471466 0.880543
vn -0.048623 -0.471466 0.880543
vn -0.048623 -0.471466 0.880543
vn -0.048623 -0.471466 0.880543
vn 0.000000 0.472026 0.881585
vn 0.000000 0.472026 0.881585
vn 0.000000 0.472026 0.881585
vn 0.000000 0.472026 0.881585
vn 0.000000 1.000000 0.000000
vn 0.000000 1.000000 0.000000
vn 0.000000 1.000000 0.000000
vn 0.000000 1.000000 0.000000
vn 0.000000 0.000000 1.000000
vn 0.000000 0.000000 1.000000
vn 0.000000 0.000000 1.000000
vn 0.000000 0.000000 1.000000
vn -0.275441 -0.414043 0.867583
vn -0.275441 -0.414043 0.867583
vn -0.275441 -0.414043 0.867583
vn -0.275441 -0.414043 0.867583
vn 0.000000 1.000000 0.000000
vn 0.000000 1.000000 0.000000
vn 0.000000 1.000000 0.000000
vn 0.000000 1.000000 0.000000
vn 0.000000 0.000000 1.000000
vn 0.000000 0.000000 1.000000
vn 0.000000 0.000000 1.000000
vn 0.000000 0.000000 1.000000
vn -0.378735 -0.349352 0.857037
vn -0.378735 -0.349352 0.857037
vn -0.378735 -0.349352 0.857037
vn -0.378734 -0.349352 0.857038
vn -0.189189 -0.447032 0.874283
vn -0.189189 -0.447032 0.874283
vn -0.189189 -0.447032 0.874283
vn -0.189189 -0.447032 0.874282
vn 0.000000 1.000000 0.000000
vn 0.000000 1.000000 0.000000
vn 0.000000 1.000000 0.000000
vn 0.000000 1.000000 0.000000
vn 0.000000 0.000000 1.000000
vn 0.000000 0.000000 1.000000
vn 0.000000 0.000000 1.000000
vn 0.000000 0.000000 1.000000
vn 0.000000 0.000000 -1.000000
vn 0.000000 0.000000 -1.000000
vn 0.000000 0.000000 -1.000000
vn 0.000000 0.000000 -1.000000
vn 0.000000 1.000000 0.000000
vn 0.000000 1.000000 0.000000
vn 0.000000 1.000000 0.000000
vn 0.000000 1.000000 0.000000
vn -0.189189 -0.447032 -0.874282
vn -0.189189 -0.447032 -0.874282
vn -0.189189 -0.447032 -0.874283
vn -0.189189 -0.447032 -0.874283
vn -0.378734 -0.349352 -0.857038
vn -0.378734 -0.349352 -0.857038
vn -0.378734 -0.349352 -0.857038
vn -0.378734 -0.349352 -0.857038
vn 0.000000 0.000000 -1.000000
vn 0.000000 0.000000 -1.000000
vn 0.000000 0.000000 -1.000000
vn 0.000000 0.000000 -1.000000
vn 0.000000 1.000000 0.000000
vn 0.000000 1.000000 0.000000
vn 0.000000 1.000000 0.000000
vn 0.000000 1.000000 0.000000
vn 0.000000 1.000000 0.000000
vn 0.000000 1.000000 0.000000
vn 0.000000 1.000000 0.000000
vn 0.000000 1.000000 0.000000
vn 0.000000 0.000000 -1.000000
vn 0.000000 0.000000 -1.000000
vn 0.000000 0.000000 -1.000000
vn 0.000000 0.000000 -1.000000
vn -1.000000 0.000000 0.000000
vn -1.000000 0.000000 0.000000
vn -1.000000 0.000000 0.000000
vn -1.000000 0.000000 0.000000
vn 0.000000 -1.000000 0.000000
vn 0.000000 -1.000000 0.000000
vn 0.000000 -1.000000 0.000000
vn 0.000000 -1.000000 0.000000
vn 0.000000 0.000000 -1.000000
vn 0.000000 0.000000 -1.000000
vn 0.000000 0.000000 -1.000000
vn 0.000000 0.000000 -1.000000
vn -1.000000 0.000000 0.000000
vn -1.000000 0.000000 0.000000
vn -1.000000 0.000000 0.000000
vn -1.000000 0.000000 0.000000
vn 0.000000 1.000000 0.000000
vn 0.000000 1.000000 0.000000
vn 0.000000 1.000000 0.000000
vn 0.000000 1.000000 0.000000
vn 0.000000 0.000000 -1.000000
vn 0.000000 0.000000 -1.000000
vn 0.000000 0.000000 -1.000000
vn 0.000000 0.000000 -1.000000
vn 0.000000 -1.000000 0.000000
vn 0.000000 -1.000000 0.000000
vn 0.000000 -1.000000 0.000000
vn 0.000000 -1.000000 0.000000
vn 0.000000 0.000000 -1.000000
vn 0.000000 0.000000 -1.000000
vn 0.000000 0.000000 -1.000000
vn 0.000000 0.000000 -1.000000
vn 0.000000 0.000000 -1.000000
vn 0.000000 0.000000 -1.000000
vn 0.000000 0.000000 -1.000000
vn 0.000000 0.000000 -1.000000
vn -1.000000 0.000000 0.000000
vn -1.000000 0.000000 0.000000
vn -1.000000 0.000000 0.000000
vn -1.000000 0.000000 0.000000
vn 0.707717 0.000000 -0.706496
vn 0.707717 0.000000 -0.706496
vn 0.707717 0.000000 -0.706496
vn 0.707717 0.000000 -0.706496
vn 0.048623 -0.471466 -0.880543
vn 0.048623 -0.471466 -0.880543
vn 0.048623 -0.471466 -0.880543
vn 0.048623 -0.471466 -0.880543
vn 0.000000 0.472026 -0.881585
vn 0.000000 0.472026 -0.881585
vn 0.000000 0.472026 -0.881585
vn 0.000000 0.472026 -0.881585
vn 0.000000 1.000000 0.000000
vn 0.000000 1.000000 0.000000
vn 0.000000 1.000000 0.000000
vn 0.000000 1.000000 0.000000
vn 0.000000 0.000000 -1.000000
vn 0.000000 0.000000 -1.000000
vn 0.000000 0.000000 -1.000000
vn 0.000000 0.000000 -1.000000
vn 0.275441 -0.414043 -0.867583
vn 0.275441 -0.414043 -0.867583
vn 0.275441 -0.414043 -0.867583
vn 0.275441 -0.414043 -0.867583
vn 0.000000 1.000000 0.000000
vn 0.000000 1.000000 0.000000
vn 0.000000 1.000000 0.000000
vn 0.000000 1.000000 0.000000
vn 0.000000 0.000000 -1.000000
vn 0.000000 0.000000 -1.000000
vn 0.000000 0.000000 -1.000000
vn 0.000000 0.000000 -1.000000
vn 0.378735 -0.349352 -0.857037
vn 0.378735 -0.349352 -0.857037
vn 0.378735 -0.349352 -0.857037
vn 0.378735 -0.349352 -0.857037
vn 0.189189 -0.447032 -0.874283
vn 0.189189 -0.447032 -0.874283
vn 0.189189 -0.447032 -0.874283
vn 0.189189 -0.447032 -0.874282
vn 0.000000 1.000000 0.000000
vn 0.000000 1.000000 0.000000
vn 0.000000 1.000000 0.000000
vn 0.000000 1.000000 0.000000
vn 0.000000 0.000000 -1.000000
vn 0.000000 0.000000 -1.000000
vn 0.000000 0.000000 -1.000000
vn 0.000000 0.000000 -1.000000
vn 1.000000 0.000000 0.000000
vn 1.000000 0.000000 0.000000
vn 1.000000 0.000000 0.000000
vn 1.000000 0.000000 0.000000
vn 0.102587 -0.994724 0.000000
vn 0.102587 -0.994724 0.000000
vn 0.102587 -0.994724 0.000000
vn 0.102587 -0.994724 0.000000
vn 0.000000 1.000000 0.000000
vn 0.000000 1.000000 0.000000
vn 0.000000 1.000000 0.000000
vn 0.000000 1.000000 0.000000
vn 0.553881 -0.832596 0.000000
vn 0.553881 -0.832596 0.000000
vn 0.553881 -0.832596 0.000000
vn 0.553881 -0.832596 0.000000
vn 0.735047 -0.678016 0.000000
vn 0.735047 -0.678016 0.000000
vn 0.735047 -0.678016 0.000000
vn 0.735047 -0.678016 0.000000
vn 0.389746 -0.920923 0.000000
vn 0.389746 -0.920923 0.000000
vn 0.389746 -0.920923 0.000000
vn 0.389746 -0.920923 0.000000
vn 0.000000 1.000000 0.000000
vn 0.000000 1.000000 0.000000
vn 0.000000 1.000000 0.000000
vn 0.000000 1.000000 0.000000
vn 0.000000 0.000000 -1.000000
vn 0.000000 0.000000 -1.000000
vn 0.000000 0.000000 -1.000000
vn 0.000000 0.000000 -1.000000
vn 1.000000 0.000000 0.000000
vn 1.000000 0.000000 0.000000
vn 1.000000 0.000000 0.000000
vn 1.000000 0.000000 0.000000
vn 0.000000 -1.000000 0.000000
vn 0.000000 -1.000000 0.000000
vn 0.000000 -1.000000 0.000000
vn 0.000000 -1.000000 0.000000
vn 0.000000 0.000000 -1.000000
vn 0.000000 0.000000 -1.000000
vn 0.000000 0.000000 -1.000000
vn 0.000000 0.000000 -1.000000
vn 1.000000 0.000000 0.000000
vn 1.000000 0.000000 0.000000
vn 1.000000 0.000000 0.000000
vn 1.000000 0.000000 0.000000
vn 0.000000 1.000000 0.000000
vn 0.000000 1.000000 0.000000
vn 0.000000 1.000000 0.000000
vn 0.000000 1.000000 0.000000
vn 0.000000 0.000000 -1.000000
vn 0.000000 0.000000 -1.000000
vn 0.000000 0.000000 -1.000000
vn 0.000000 0.000000 -1.000000
vn 0.000000 -1.000000 0.000000
vn 0.000000 -1.000000 0.000000
vn 0.000000 -1.000000 0.000000
vn 0.000000 -1.000000 0.000000
vn 0.000000 0.000000 -1.000000
vn 0.000000 0.000000 -1.000000
vn 0.000000 0.000000 -1.000000
vn 0.000000 0.000000 -1.000000
vn 0.000000 0.000000 -1.000000
vn 0.000000 0.000000 -1.000000
vn 0.000000 0.000000 -1.000000
vn 0.000000 0.000000 -1.000000
vn 1.000000 0.000000 0.000000
vn 1.000000 0.000000 0.000000
vn 1.000000 0.000000 0.000000
vn 1.000000 0.000000 0.000000
vn -0.707715 0.000000 -0.706498
vn -0.707715 0.000000 -0.706498
vn -0.707715 0.000000 -0.706498
vn -0.707715 0.000000 -0.706498
vn -0.048623 -0.471466 -0.880543
vn -0.048623 -0.471466 -0.880543
vn -0.048623 -0.471466 -0.880543
vn -0.048623 -0.471466 -0.880543
vn 0.000000 0.472026 -0.881585
vn 0.000000 0.472026 -0.881585
vn 0.000000 0.472026 -0.881585
vn 0.000000 0.472026 -0.881585
vn 0.000000 1.000000 0.000000
vn 0.000000 1.000000 0.000000
vn 0.000000 1.000000 0.000000
vn 0.000000 1.000000 0.000000
vn 0.000000 0.000000 -1.000000
vn 0.000000 0.000000 -1.000000
vn 0.000000 0.000000 -1.000000
vn 0.000000 0.000000 -1.000000
vn -0.275441 -0.414043 -0.867583
vn -0.275441 -0.414043 -0.867583
vn -0.275441 -0.414043 -0.867583
vn -0.275441 -0.414043 -0.867583
s off
g polySurface1 Mesh
usemtl lambert3SG
f 1/1/1 2/2/2 3/3/3 4/4/4
f 5/5/5 6/6/6 7/7/7 8/8/8
f 9/9/9 5/5/10 8/8/11 10/10/12
f 9/9/13 11/11/14 6/6/15 5/5/16
f 12/12/17 13/13/18 2/2/19 1/1/20
f 14/14/21 12/12/22 1/1/23 4/4/24
f 2/2/25 15/15/26 16/16/27 3/3/28
f 6/6/29 17/17/30 18/18/31 7/7/32
f 11/11/33 19/19/34 17/17/35 6/6/36
f 13/13/37 20/20/38 15/15/39 2/2/40
f 8/8/41 7/7/42 13/13/43 12/12/44
f 10/10/45 8/8/46 12/12/47 14/14/48
f 13/13/49 7/7/50 21/21/51 22/22/52
f 23/23/53 24/24/54 25/25/55 26/26/56
f 7/7/57 18/18/58 27/27/59 21/21/60
f 28/28/61 29/29/62 30/30/63 31/31/64
f 32/32/65 24/24/66 29/29/67 28/28/68
f 32/32/69 20/20/70 33/33/71 34/34/72
f 15/15/73 28/28/74 31/31/75 16/16/76
f 20/20/77 32/32/78 28/28/79 15/15/80
f 20/20/81 13/13/82 22/22/83 33/33/84
f 24/24/85 32/32/86 34/34/87 25/25/88
f 29/29/89 35/35/90 36/36/91 30/30/92
f 24/24/93 23/23/94 35/35/95 29/29/96
f 37/37/97 38/38/98 39/39/99 40/40/100
f 41/41/101 42/42/102 43/43/103 44/44/104
f 38/38/105 41/41/106 44/44/107 39/39/108
f 45/45/109 46/46/110 27/27/111 47/47/112
f 48/48/113 37/37/114 40/40/115 26/26/116
f 42/42/117 45/45/118 47/47/119 43/43/120
f 49/49/121 50/50/122 51/51/123 52/52/124
f 53/53/125 54/54/126 55/55/127 56/56/128
f 57/57/129 58/58/130 54/54/131 53/53/132
f 57/57/133 53/53/134 56/56/135 59/59/136
f 60/60/137 49/49/138 52/52/139 61/61/140
f 62/62/141 50/50/142 49/49/143 60/60/144
f 52/52/145 51/51/146 63/63/147 64/64/148
f 56/56/149 55/55/150 18/18/151 17/17/152
f 59/59/153 56/56/154 17/17/155 19/19/156
f 61/61/157 52/52/158 64/64/159 65/65/160
f 54/54/161 60/60/162 61/61/163 55/55/164
f 58/58/165 62/62/166 60/60/167 54/54/168
f 61/61/169 43/43/170 47/47/171 55/55/172
f 23/23/173 26/26/174 40/40/175 66/66/176
f 55/55/177 47/47/178 27/27/179 18/18/180
f 67/67/181 68/68/182 69/69/183 70/70/184
f 71/71/185 67/67/186 70/70/187 66/66/188
f 71/71/189 39/39/190 44/44/191 65/65/192
f 64/64/193 63/63/194 68/68/195 67/67/196
f 65/65/197 64/64/198 67/67/199 71/71/200
f 65/65/201 44/44/202 43/43/203 61/61/204
f 66/66/205 40/40/206 39/39/207 71/71/208
f 70/70/209 69/69/210 36/36/211 35/35/212
f 66/66/213 70/70/214 35/35/215 23/23/216
f 72/72/217 73/73/218 74/74/219 75/75/220
f 75/75/221 74/74/222 36/76/223 69/77/224
f 72/72/225 76/78/226 38/79/227 37/80/228
f 77/81/229 78/82/230 42/83/231 41/84/232
f 77/81/233 76/78/234 79/85/235 80/86/236
f 80/86/237 79/85/238 68/87/239 63/88/240
f 81/89/241 4/90/242 3/91/243 82/92/244
f 83/93/245 84/94/246 85/95/247 86/96/248
f 9/97/249 10/98/250 84/94/251 83/93/252
f 9/97/253 83/93/254 86/96/255 11/99/256
f 87/100/257 81/89/258 82/92/259 88/101/260
f 14/102/261 4/90/262 81/89/263 87/100/264
f 82/92/265 3/91/266 16/103/267 89/104/268
f 86/96/269 85/95/270 90/105/271 91/106/272
f 11/99/273 86/96/274 91/106/275 19/107/276
f 88/101/277 82/92/278 89/104/279 92/108/280
f 84/94/281 87/100/282 88/101/283 85/95/284
f 10/98/285 14/102/286 87/100/287 84/94/288
f 88/101/289 93/109/290 94/110/291 85/95/292
f 73/73/293 48/111/294 95/112/295 96/113/296
f 85/95/297 94/110/298 46/114/299 90/105/300
f 97/115/301 31/116/302 30/117/303 98/118/304
f 99/119/305 97/115/306 98/118/307 96/113/308
f 99/119/309 100/120/310 101/121/311 92/108/312
f 89/104/313 16/103/314 31/116/315 97/115/316
f 92/108/317 89/104/318 97/115/319 99/119/320
f 92/108/321 101/121/322 93/109/323 88/101/324
f 96/113/325 95/112/326 100/120/327 99/119/328
f 98/118/329 30/117/330 36/76/331 74/74/332
f 96/113/333 98/118/334 74/74/335 73/73/336
f 93/122/337 22/22/338 21/21/339 94/123/340
f 48/48/341 26/26/342 25/25/343 95/124/344
f 94/123/345 21/21/346 27/27/347 46/46/348
f 100/125/349 34/34/350 33/33/351 101/126/352
f 101/126/353 33/33/354 22/22/355 93/122/356
f 95/124/357 25/25/358 34/34/359 100/125/360
f 102/127/361 103/128/362 51/129/363 50/130/364
f 104/131/365 105/132/366 106/133/367 107/134/368
f 57/135/369 104/131/370 107/134/371 58/136/372
f 57/135/373 59/137/374 105/132/375 104/131/376
f 108/138/377 78/82/378 103/128/379 102/127/380
f 62/139/381 108/138/382 102/127/383 50/130/384
f 103/128/385 80/86/386 63/88/387 51/129/388
f 105/132/389 91/106/390 90/105/391 106/133/392
f 59/137/393 19/107/394 91/106/395 105/132/396
f 78/82/397 77/81/398 80/86/399 103/128/400
f 107/134/401 106/133/402 78/82/403 108/138/404
f 58/136/405 107/134/406 108/138/407 62/139/408
f 78/82/409 106/133/410 45/140/411 42/83/412
f 73/73/413 72/72/414 37/80/415 48/111/416
f 106/133/417 90/105/418 46/114/419 45/140/420
f 79/85/421 75/75/422 69/77/423 68/87/424
f 76/78/425 72/72/426 75/75/427 79/85/428
f 76/78/429 77/81/430 41/84/431 38/79/432
