# This file uses centimeters as units for non-parametric coordinates.

mtllib BIGTREE.mtl
g BIGTREE:default1
v 4.793671 2.043679 -1.054868
v 4.360068 3.018396 -0.852676
v 3.927322 4.030072 -0.650883
v 2.185940 -0.213314 0.161137
v 1.516113 0.542027 0.473482
v 0.143809 1.283846 -0.282723
v 3.173690 -3.607748 -0.299459
v 0.843715 -3.620983 0.074924
v -0.559857 -3.578949 0.045402
v 2.641027 1.927286 -0.051074
v 3.133580 0.921159 -0.280755
v 1.340250 3.644070 0.555489
v 1.114828 -0.891285 -0.080218
v 2.335428 -1.460713 0.091429
v -0.595905 -0.310905 0.062212
vt 0.556182 0.325343
vt 0.512509 0.232174
vt 0.567303 0.179126
vt 0.618370 0.292176
vt 0.617698 0.392224
vt 0.729574 0.275458
vt 0.749400 0.393281
vt 0.520605 0.401347
vt 0.418609 0.123955
vt 0.468636 0.071596
vt 0.693097 0.098823
vt 0.581820 0.571819
vt 0.681144 0.600293
vt 0.418609 0.519272
vt 0.519345 0.016868
vn 0.422618 -0.000000 0.906308
vn 0.422618 -0.000000 0.906308
vn 0.422618 -0.000000 0.906308
vn 0.422618 -0.000000 0.906308
vn 0.422618 -0.000000 0.906308
vn 0.422618 -0.000000 0.906308
vn 0.422618 0.000000 0.906308
vn 0.422618 0.000000 0.906308
vn 0.422618 -0.000000 0.906308
vn 0.422618 -0.000000 0.906308
vn 0.422618 -0.000000 0.906308
vn 0.422618 -0.000000 0.906308
vn 0.422618 -0.000000 0.906308
vn 0.422618 0.000000 0.906308
vn 0.422618 0.000000 0.906308
vn 0.422618 -0.000000 0.906308
vn 0.422618 -0.000000 0.906308
vn 0.422618 -0.000000 0.906308
vn 0.422618 -0.000000 0.906308
vn 0.422618 0.000000 0.906308
vn 0.422618 -0.000000 0.906308
vn 0.422618 -0.000000 0.906308
vn 0.422618 0.000000 0.906308
vn 0.422618 -0.000000 0.906308
vn 0.422618 -0.000000 0.906308
vn 0.422618 -0.000000 0.906308
vn 0.422618 -0.000000 0.906308
vn 0.422618 -0.000000 0.906308
vn 0.422618 -0.000000 0.906308
vn 0.422618 0.000000 0.906308
vn 0.422618 0.000000 0.906308
vn 0.422618 -0.000000 0.906308
s off
g BIGTREE:Group59047 BIGTREE:polySurface2 polySurface5 BIGTREE:polySurface1
usemtl BIGTREE:right_side_tree
f 4/1/1 11/2/2 10/3/3 5/4/4
f 13/5/5 5/4/6 6/6/7 15/7/8
f 14/8/9 4/1/10 5/4/11 13/5/12
f 11/2/13 1/9/14 2/10/15 10/3/16
f 5/4/17 10/3/18 12/11/19 6/6/20
f 8/12/21 13/5/22 15/7/23 9/13/24
f 7/14/25 14/8/26 13/5/27 8/12/28
f 10/3/29 2/10/30 3/15/31 12/11/32
g BIGTREE:default1
v -3.911432 1.530836 0.349896
v -3.780704 2.962942 -0.091737
v -3.386266 4.030024 -0.022187
v -2.639020 -0.902940 0.669799
v -1.695001 0.625683 -0.108828
v -1.297266 1.925708 0.346160
v -0.529734 -3.980567 0.404911
v 0.506987 -2.077521 0.031883
v 0.524085 0.541516 0.954204
v -2.747856 1.814722 -0.165353
v -3.431861 0.567290 0.721943
v -2.327779 3.003725 0.164453
v -0.183941 -0.385714 0.249197
v -2.375291 -2.262988 1.274376
v 0.519869 2.819507 0.967209
vt 0.990234 0.568679
vt 0.899908 0.539020
vt 0.900267 0.432377
vt 0.990234 0.463575
vt 0.845806 0.632069
vt 0.732189 0.492636
vt 0.822065 0.492292
vt 0.979973 0.662363
vt 0.901429 0.328668
vt 0.971653 0.394010
vt 0.826228 0.392181
vt 0.849760 0.744101
vt 0.740270 0.689111
vt 0.971087 0.750959
vt 0.834101 0.293380
vn -0.173648 0.000000 0.984808
vn -0.173648 0.000000 0.984808
vn -0.173648 0.000000 0.984808
vn -0.173648 0.000000 0.984808
vn -0.173648 0.000000 0.984808
vn -0.173648 0.000000 0.984808
vn -0.173648 0.000000 0.984808
vn -0.173648 0.000000 0.984808
vn -0.173648 0.000000 0.984808
vn -0.173648 0.000000 0.984808
vn -0.173648 0.000000 0.984808
vn -0.173648 0.000000 0.984808
vn -0.173648 0.000000 0.984808
vn -0.173648 0.000000 0.984808
vn -0.173648 0.000000 0.984808
vn -0.173648 0.000000 0.984808
vn -0.173648 0.000000 0.984808
vn -0.173648 0.000000 0.984808
vn -0.173648 0.000000 0.984808
vn -0.173648 0.000000 0.984808
vn -0.173648 0.000000 0.984808
vn -0.173648 0.000000 0.984808
vn -0.173648 0.000000 0.984808
vn -0.173648 0.000000 0.984808
vn -0.173648 0.000000 0.984808
vn -0.173648 0.000000 0.984808
vn -0.173648 0.000000 0.984808
vn -0.173648 0.000000 0.984808
vn -0.173648 0.000000 0.984808
vn -0.173648 0.000000 0.984808
vn -0.173648 0.000000 0.984808
vn -0.173648 0.000000 0.984808
s off
g BIGTREE:Group59047 BIGTREE:polySurface2 BIGTREE:polySurface1 polySurface3
usemtl BIGTREE:right_side_tree
f 19/16/33 20/17/34 25/18/35 26/19/36
f 28/20/37 30/21/38 21/22/39 20/17/40
f 29/23/41 28/20/42 20/17/43 19/16/44
f 26/19/45 25/18/46 17/24/47 16/25/48
f 20/17/49 21/22/50 27/26/51 25/18/52
f 23/27/53 24/28/54 30/21/55 28/20/56
f 22/29/57 23/27/58 28/20/59 29/23/60
f 25/18/61 27/26/62 18/30/63 17/24/64
g BIGTREE:default1
v -3.240353 4.217493 1.244413
v -0.220834 4.297945 2.821743
v 2.214742 4.297945 1.244413
v -1.569423 0.000000 2.557073
v -0.220834 0.000000 2.821743
v 1.084098 0.000000 2.328380
v -2.813143 -4.297945 1.677642
v -0.220835 -4.297944 2.821743
v 2.214742 -4.297945 1.244413
v -0.889672 0.000000 2.784162
v -0.209006 2.149970 2.820693
v -1.702642 4.258034 2.491025
v -2.579128 2.034215 1.887193
v -1.217467 2.114246 2.697863
v 0.437089 0.000000 2.669816
v 1.919718 2.208277 1.589393
v 1.016544 4.297946 2.373220
v 0.923842 2.183193 2.431220
v -1.497396 -4.297944 2.589884
v -0.220834 -2.148973 2.821743
v -1.747040 -2.148973 2.467477
v -0.984100 -2.148973 2.763797
v 1.016543 -4.297945 2.373220
v 1.249692 -2.148972 2.209204
v 0.528251 -2.148972 2.633455
vt 0.319524 0.301049
vt 0.271753 0.303922
vt 0.283953 0.161535
vt 0.389752 0.159699
vt 0.227151 0.306986
vt 0.216184 0.163881
vt 0.206755 0.020863
vt 0.307830 0.016243
vt 0.439673 0.009766
vt 0.182224 0.310071
vt 0.136298 0.167249
vt 0.133532 0.313304
vt 0.049402 0.171513
vt 0.009766 0.034532
vt 0.119273 0.027016
vt 0.439673 0.580265
vt 0.333123 0.587211
vt 0.287569 0.446585
vt 0.342048 0.443011
vt 0.246843 0.593126
vt 0.236634 0.450076
vt 0.159389 0.599404
vt 0.185207 0.453578
vt 0.049934 0.606970
vt 0.129441 0.457011
vn -0.414599 0.009612 0.909953
vn -0.252413 0.007231 0.967593
vn -0.367788 0.015972 0.929772
vn -0.547408 0.009216 0.836815
vn -0.252413 0.007231 0.967593
vn 0.098820 0.007875 0.995074
vn 0.090141 0.017111 0.995782
vn -0.367788 0.015972 0.929772
vn -0.367788 0.015972 0.929772
vn 0.090141 0.017111 0.995782
vn 0.078314 0.016906 0.996785
vn -0.449481 0.013865 0.893182
vn -0.547408 0.009216 0.836815
vn -0.367788 0.015972 0.929772
vn -0.449481 0.013865 0.893182
vn -0.578857 0.006743 0.815401
vn 0.098820 0.007875 0.995074
vn 0.400443 0.006185 0.916301
vn 0.497571 0.009272 0.867374
vn 0.090141 0.017111 0.995782
vn 0.400443 0.006185 0.916301
vn 0.548223 0.001947 0.836330
vn 0.643720 0.008195 0.765217
vn 0.497571 0.009272 0.867374
vn 0.497571 0.009272 0.867374
vn 0.643720 0.008195 0.765217
vn 0.668116 0.009697 0.743994
vn 0.528155 0.008321 0.849107
vn 0.090141 0.017111 0.995782
vn 0.497571 0.009272 0.867374
vn 0.528155 0.008321 0.849107
vn 0.078314 0.016906 0.996785
vn -0.502606 -0.009147 0.864467
vn -0.369354 -0.014855 0.929170
vn -0.273436 -0.011332 0.961823
vn -0.454093 -0.007100 0.890926
vn -0.369354 -0.014855 0.929170
vn 0.085843 -0.023714 0.996026
vn 0.085857 -0.015270 0.996190
vn -0.273436 -0.011332 0.961823
vn -0.273436 -0.011332 0.961823
vn 0.085857 -0.015270 0.996190
vn 0.098820 0.007875 0.995074
vn -0.252413 0.007231 0.967593
vn -0.454093 -0.007100 0.890926
vn -0.273436 -0.011332 0.961823
vn -0.252413 0.007231 0.967593
vn -0.414599 0.009612 0.909953
vn 0.085843 -0.023714 0.996026
vn 0.513859 -0.014496 0.857752
vn 0.427295 -0.011134 0.904044
vn 0.085857 -0.015270 0.996190
vn 0.513859 -0.014496 0.857752
vn 0.628944 -0.008903 0.777400
vn 0.587569 -0.006931 0.809145
vn 0.427295 -0.011134 0.904044
vn 0.427295 -0.011134 0.904044
vn 0.587569 -0.006931 0.809145
vn 0.548223 0.001947 0.836330
vn 0.400443 0.006185 0.916301
vn 0.085857 -0.015270 0.996190
vn 0.427295 -0.011134 0.904044
vn 0.400443 0.006185 0.916301
vn 0.098820 0.007875 0.995074
s off
g BIGTREE:Group59047 BIGTREE:polySurface2 BIGTREE:polySurface1 polySurface2
usemtl BIGTREE:right_side_tree
f 34/31/65 40/32/66 44/33/67 43/34/68
f 40/32/69 35/35/70 41/36/71 44/33/72
f 44/33/73 41/36/74 32/37/75 42/38/76
f 43/34/77 44/33/78 42/38/79 31/39/80
f 35/35/81 45/40/82 48/41/83 41/36/84
f 45/40/85 36/42/86 46/43/87 48/41/88
f 48/41/89 46/43/90 33/44/91 47/45/92
f 41/36/93 48/41/94 47/45/95 32/37/96
f 37/46/97 49/47/98 52/48/99 51/49/100
f 49/47/101 38/50/102 50/51/103 52/48/104
f 52/48/105 50/51/106 35/35/107 40/32/108
f 51/49/109 52/48/110 40/32/111 34/31/112
f 38/50/113 53/52/114 55/53/115 50/51/116
f 53/52/117 39/54/118 54/55/119 55/53/120
f 55/53/121 54/55/122 36/42/123 45/40/124
f 50/51/125 55/53/126 45/40/127 35/35/128
g BIGTREE:default1
v -3.058922 0.810775 1.176488
v -3.873388 0.307763 0.668064
v -3.880924 -0.900528 0.663360
v -0.929540 -0.962431 2.505737
v -1.955547 -1.556745 1.865260
v -2.839375 -1.868129 1.313538
v -1.319258 -4.149408 2.262458
v -3.992329 -4.372940 0.593816
v -5.090882 -4.536204 -0.091947
v -2.677364 -0.518164 1.414673
v -2.090441 0.010229 1.781054
v -3.035889 -1.235147 1.190866
v -2.728005 -3.148967 1.383060
v -0.809497 -2.233865 2.580673
v -4.279978 -3.379582 0.414254
vt 0.242748 0.821499
vt 0.215087 0.902033
vt 0.159927 0.847769
vt 0.136504 0.732742
vt 0.126658 0.947223
vt 0.098084 0.903974
vt 0.053058 0.984217
vt 0.009766 0.939117
vt 0.240967 0.689559
vt 0.076307 0.634021
vt 0.109239 0.814019
vt 0.042497 0.693964
vt 0.086864 0.852013
vt 0.028401 0.860715
vt 0.009766 0.606571
vn -0.529537 0.000000 0.848287
vn -0.529537 0.000000 0.848287
vn -0.529537 0.000000 0.848287
vn -0.529537 0.000000 0.848287
vn -0.529537 0.000000 0.848287
vn -0.529536 0.000000 0.848288
vn -0.529536 0.000000 0.848287
vn -0.529537 0.000000 0.848287
vn -0.529536 0.000000 0.848288
vn -0.529536 0.000001 0.848288
vn -0.529537 0.000000 0.848287
vn -0.529536 0.000000 0.848287
vn -0.529537 0.000000 0.848287
vn -0.529537 0.000000 0.848287
vn -0.529537 0.000000 0.848287
vn -0.529537 0.000000 0.848287
vn -0.529537 0.000000 0.848287
vn -0.529537 0.000000 0.848287
vn -0.529537 0.000000 0.848287
vn -0.529537 0.000000 0.848287
vn -0.529537 0.000000 0.848287
vn -0.529536 0.000000 0.848287
vn -0.529537 0.000000 0.848287
vn -0.529537 0.000000 0.848287
vn -0.529536 0.000000 0.848287
vn -0.529537 0.000000 0.848287
vn -0.529537 0.000000 0.848287
vn -0.529537 0.000000 0.848287
vn -0.529537 0.000000 0.848287
vn -0.529537 0.000000 0.848287
vn -0.529537 0.000000 0.848287
vn -0.529537 0.000000 0.848287
s off
g BIGTREE:Group59047 BIGTREE:polySurface2 BIGTREE:polySurface1 polySurface4
usemtl BIGTREE:right_side_tree
f 69/56/129 59/57/130 60/58/131 68/59/132
f 59/57/133 66/60/134 65/61/135 60/58/136
f 66/60/137 56/62/138 57/63/139 65/61/140
f 62/64/141 69/56/142 68/59/143 63/65/144
f 68/59/145 60/58/146 61/66/147 70/67/148
f 60/58/149 65/61/150 67/68/151 61/66/152
f 65/61/153 57/63/154 58/69/155 67/68/156
f 63/65/157 68/59/158 70/67/159 64/70/160
g BIGTREE:default1
v 2.458393 1.564968 1.053691
v 3.686317 1.164334 0.344748
v 3.298456 -0.131768 0.568681
v 0.568986 0.673666 2.144541
v 0.870191 -0.216200 1.970640
v 1.628054 -1.182739 1.533087
v 0.194452 -3.503765 2.360778
v 1.142710 -3.596527 1.813301
v 2.094039 -3.375968 1.264051
v 0.747236 0.336435 2.041628
v 1.812053 0.335936 1.426856
v 3.239569 1.483171 0.602679
v 1.393686 0.995595 1.668400
v 1.633048 0.677095 1.530204
v 1.168947 -0.783355 1.798153
v 1.939826 -0.528505 1.353086
v 3.679042 0.527486 0.348949
v 1.807576 -0.061629 1.429441
v 0.703216 -3.585682 2.067043
v 0.826090 -1.853541 1.996102
v 0.058042 -1.345073 2.439534
v 0.432274 -1.595424 2.223471
v 1.632025 -3.519596 1.530795
v 1.888557 -2.275906 1.382686
v 1.387211 -2.087009 1.672138
vt 0.671359 0.700361
vt 0.649382 0.714897
vt 0.597262 0.665366
vt 0.622969 0.653959
vt 0.625162 0.744249
vt 0.575121 0.680115
vt 0.467888 0.568817
vt 0.508066 0.564169
vt 0.564851 0.584769
vt 0.588273 0.768729
vt 0.564177 0.704269
vt 0.544953 0.777837
vt 0.541737 0.728138
vt 0.458236 0.659763
vt 0.450364 0.607511
vt 0.579199 0.964862
vt 0.541405 0.953176
vt 0.616647 0.841851
vt 0.649829 0.838968
vt 0.510453 0.939462
vt 0.581879 0.844562
vt 0.478513 0.918820
vt 0.536144 0.840316
vt 0.450364 0.895042
vt 0.495838 0.835332
vn 0.500000 -0.000000 0.866025
vn 0.500000 -0.000000 0.866025
vn 0.500000 0.000000 0.866026
vn 0.500000 -0.000000 0.866025
vn 0.500000 -0.000000 0.866025
vn 0.499999 0.000000 0.866026
vn 0.500000 0.000000 0.866025
vn 0.500000 0.000000 0.866026
vn 0.500000 0.000000 0.866026
vn 0.500000 0.000000 0.866025
vn 0.500000 0.000000 0.866025
vn 0.500000 0.000000 0.866025
vn 0.500000 -0.000000 0.866025
vn 0.500000 0.000000 0.866026
vn 0.500000 0.000000 0.866025
vn 0.500000 -0.000000 0.866025
vn 0.499999 0.000000 0.866026
vn 0.500000 -0.000000 0.866025
vn 0.500000 -0.000000 0.866025
vn 0.500000 0.000000 0.866025
vn 0.500000 -0.000000 0.866025
vn 0.500000 -0.000000 0.866025
vn 0.500000 -0.000001 0.866025
vn 0.500000 -0.000000 0.866025
vn 0.500000 -0.000000 0.866025
vn 0.500000 -0.000001 0.866025
vn 0.500000 -0.000000 0.866025
vn 0.500000 0.000000 0.866025
vn 0.500000 0.000000 0.866025
vn 0.500000 -0.000000 0.866025
vn 0.500000 0.000000 0.866025
vn 0.500000 0.000000 0.866025
vn 0.500000 0.000000 0.866025
vn 0.500000 0.000000 0.866025
vn 0.500000 0.000000 0.866026
vn 0.500000 -0.000000 0.866025
vn 0.500000 0.000000 0.866025
vn 0.500000 0.000000 0.866025
vn 0.500000 0.000000 0.866026
vn 0.500000 0.000000 0.866026
vn 0.500000 0.000000 0.866026
vn 0.500000 0.000000 0.866026
vn 0.499999 0.000000 0.866026
vn 0.500000 -0.000000 0.866025
vn 0.500000 -0.000000 0.866025
vn 0.500000 0.000000 0.866026
vn 0.500000 -0.000000 0.866025
vn 0.500000 -0.000000 0.866025
vn 0.500000 0.000000 0.866025
vn 0.500000 0.000000 0.866025
vn 0.500000 0.000000 0.866025
vn 0.500000 0.000000 0.866026
vn 0.500000 0.000000 0.866025
vn 0.500000 0.000000 0.866026
vn 0.500000 0.000000 0.866026
vn 0.500000 0.000000 0.866025
vn 0.500000 0.000000 0.866025
vn 0.500000 0.000000 0.866026
vn 0.500000 -0.000000 0.866025
vn 0.500000 -0.000000 0.866025
vn 0.500000 0.000000 0.866026
vn 0.500000 0.000000 0.866025
vn 0.500000 -0.000000 0.866025
vn 0.499999 0.000000 0.866026
s off
g BIGTREE:Group59047 BIGTREE:polySurface2 BIGTREE:polySurface1 polySurface1
usemtl BIGTREE:right_side_tree
f 74/71/161 80/72/162 84/73/163 83/74/164
f 80/72/165 75/75/166 81/76/167 84/73/168
f 84/73/169 81/76/170 72/77/171 82/78/172
f 83/74/173 84/73/174 82/78/175 71/79/176
f 75/75/177 85/80/178 88/81/179 81/76/180
f 85/80/181 76/82/182 86/83/183 88/81/184
f 88/81/185 86/83/186 73/84/187 87/85/188
f 81/76/189 88/81/190 87/85/191 72/77/192
f 77/86/193 89/87/194 92/88/195 91/89/196
f 89/87/197 78/90/198 90/91/199 92/88/200
f 92/88/201 90/91/202 75/75/203 80/72/204
f 91/89/205 92/88/206 80/72/207 74/71/208
f 78/90/209 93/92/210 95/93/211 90/91/212
f 93/92/213 79/94/214 94/95/215 95/93/216
f 95/93/217 94/95/218 76/82/219 85/80/220
f 90/91/221 95/93/222 85/80/223 75/75/224
